<?xml version="1.0" standalone="no"?>
<!DOCTYPE svg PUBLIC "-//W3C//DTD SVG 20010904//EN"
 "http://www.w3.org/TR/2001/REC-SVG-20010904/DTD/svg10.dtd">
<svg version="1.0" xmlns="http://www.w3.org/2000/svg"
 width="2163.000000pt" height="2600.000000pt" viewBox="0 0 2163.000000 2600.000000"
 preserveAspectRatio="xMidYMid meet">
<metadata>
Created by potrace 1.16, written by Peter Selinger 2001-2019
</metadata>
<g transform="translate(0.000000,2600.000000) scale(0.100000,-0.100000)"
fill="#000000" stroke="none">
<path d="M6968 25129 c6 -15 23 -29 47 -37 20 -6 48 -21 62 -32 14 -11 30 -20
35 -20 14 0 90 -61 107 -85 8 -11 37 -42 65 -70 92 -89 186 -224 186 -266 0
-9 7 -19 15 -23 8 -3 15 -12 15 -21 0 -8 6 -15 14 -15 8 0 21 -3 29 -6 22 -8
26 35 9 92 -22 77 -34 104 -43 104 -5 0 -9 5 -9 11 0 6 -12 24 -27 41 -87 93
-153 158 -193 186 -25 18 -61 45 -81 60 -20 15 -47 34 -59 42 -12 8 -34 24
-48 34 -14 12 -47 21 -78 24 -54 4 -54 4 -46 -19z"/>
<path d="M11088 24975 c-3 -4 -31 -12 -61 -19 -41 -10 -59 -10 -67 -2 -8 8 -9
6 -5 -6 4 -10 15 -20 26 -23 36 -12 18 -35 -41 -53 -19 -6 -80 -14 -135 -17
-56 -4 -153 -19 -220 -35 -142 -35 -263 -50 -400 -50 -64 0 -127 -7 -175 -19
-91 -23 -140 -8 -95 29 8 7 12 16 9 21 -3 5 1 9 9 9 7 0 24 14 36 31 l24 32
-59 -8 c-32 -4 -99 -24 -148 -45 -87 -37 -99 -39 -296 -55 -113 -10 -236 -20
-275 -22 -38 -2 -79 -8 -90 -13 -11 -5 -80 -20 -153 -34 -73 -15 -173 -42
-222 -61 -49 -19 -96 -35 -104 -35 -20 0 -59 -16 -231 -95 -49 -22 -119 -60
-154 -83 -35 -23 -72 -42 -81 -42 -10 0 -38 -18 -63 -40 -25 -22 -50 -40 -56
-40 -7 0 -41 -14 -76 -30 -48 -22 -85 -32 -142 -36 -161 -11 -182 -18 -240
-80 -38 -41 -53 -65 -53 -85 0 -33 -19 -48 -103 -80 -39 -15 -83 -44 -135 -91
-42 -38 -107 -89 -143 -113 -36 -24 -81 -58 -100 -75 -19 -18 -50 -44 -69 -58
-19 -15 -54 -43 -78 -64 -24 -20 -58 -40 -75 -44 -45 -10 -86 -40 -158 -117
-34 -37 -68 -67 -74 -67 -7 0 -53 -43 -104 -95 -62 -65 -101 -98 -121 -102
-16 -3 -35 -12 -41 -19 -6 -8 -16 -14 -21 -14 -6 0 -26 -13 -45 -30 -18 -16
-45 -30 -59 -30 -13 0 -27 -7 -30 -15 -3 -8 -27 -24 -52 -37 -26 -12 -81 -44
-122 -71 l-75 -49 -90 7 c-107 9 -90 9 -248 -3 l-127 -11 -73 -47 c-39 -26
-74 -50 -77 -54 -3 -3 -20 -12 -38 -19 -18 -8 -38 -21 -45 -31 -7 -9 -32 -30
-56 -46 -24 -16 -54 -36 -67 -45 -13 -8 -54 -47 -92 -85 -38 -38 -95 -91 -126
-119 -55 -47 -226 -253 -226 -272 0 -5 -17 -27 -37 -50 -133 -146 -169 -188
-175 -203 -3 -10 -41 -53 -83 -96 -42 -44 -83 -92 -92 -108 -8 -15 -49 -60
-91 -100 -42 -39 -101 -96 -132 -126 -30 -30 -91 -86 -135 -125 -43 -38 -100
-90 -126 -115 -26 -25 -68 -61 -93 -80 -91 -69 -122 -94 -176 -146 -84 -80
-162 -148 -193 -167 -51 -33 -477 -448 -477 -466 0 -5 -38 -48 -84 -95 -86
-88 -86 -88 -141 -256 -27 -82 -75 -170 -117 -215 -21 -22 -48 -54 -60 -72
-13 -18 -51 -65 -84 -106 -34 -41 -74 -94 -90 -118 -16 -24 -38 -55 -51 -67
-12 -13 -37 -47 -55 -75 -18 -29 -38 -58 -45 -65 -7 -7 -13 -20 -13 -28 0 -22
-70 -183 -97 -223 -13 -19 -26 -46 -29 -60 -8 -45 -35 -134 -54 -181 -11 -25
-24 -63 -30 -85 -7 -22 -22 -56 -34 -75 -11 -19 -41 -75 -66 -125 -42 -85 -58
-106 -108 -146 -11 -10 -24 -23 -28 -31 -5 -8 -26 -27 -46 -42 -37 -27 -95
-112 -84 -123 17 -18 120 51 131 88 7 21 111 103 143 113 13 4 22 19 26 41 5
27 12 35 28 35 19 0 19 -2 5 -23 -8 -12 -18 -38 -22 -56 -8 -37 -60 -149 -89
-193 -10 -15 -29 -59 -42 -99 -13 -39 -37 -86 -52 -103 -15 -18 -47 -61 -72
-96 -25 -35 -72 -94 -105 -130 -33 -36 -91 -103 -130 -149 -38 -46 -81 -96
-95 -111 -92 -103 -140 -187 -140 -247 0 -24 -7 -47 -19 -59 -10 -11 -23 -36
-30 -55 -6 -19 -27 -51 -46 -71 -19 -20 -42 -53 -51 -74 -9 -22 -31 -60 -50
-87 -19 -26 -34 -52 -34 -58 0 -19 -33 -68 -49 -71 -13 -3 -31 -43 -71 -158
-7 -19 -19 -47 -26 -61 -12 -24 -20 -73 -40 -249 -3 -30 -15 -98 -25 -150 -14
-63 -20 -132 -20 -210 1 -126 -20 -334 -44 -450 -9 -43 -7 -103 5 -140 16 -48
22 -227 9 -252 -6 -10 -19 -63 -29 -116 -26 -133 -34 -155 -69 -204 -16 -24
-35 -63 -41 -87 -6 -24 -18 -54 -25 -65 -13 -19 -28 -59 -100 -253 -13 -33
-46 -102 -73 -152 -28 -50 -56 -107 -62 -128 -7 -21 -20 -52 -30 -69 -10 -17
-21 -45 -25 -62 -3 -17 -14 -41 -24 -54 -10 -13 -24 -48 -31 -78 -7 -30 -16
-59 -20 -65 -4 -5 -11 -26 -14 -45 -4 -19 -16 -57 -26 -85 -10 -27 -26 -81
-35 -118 -10 -38 -24 -71 -31 -74 -12 -4 -14 -1055 -14 -6739 l0 -6734 10815
0 10815 0 0 4329 0 4328 -27 19 c-50 36 -113 97 -113 109 0 8 -5 15 -11 17
-18 6 -24 86 -6 106 8 9 18 31 22 49 8 41 44 76 95 93 l40 13 0 626 c0 590 -1
627 -17 627 -16 0 -18 -9 -15 -63 4 -61 -12 -162 -26 -173 -20 -14 -42 -73
-42 -109 0 -52 -79 -210 -132 -264 -20 -21 -47 -52 -60 -70 -12 -18 -28 -38
-36 -46 -7 -8 -20 -24 -28 -36 -8 -13 -34 -36 -57 -51 -23 -16 -46 -35 -50
-41 -12 -19 -41 -16 -55 7 -9 16 -9 32 4 82 9 35 20 104 24 153 5 50 13 108
19 130 5 22 14 56 19 75 5 19 20 58 35 85 52 102 60 205 17 205 -18 0 -19 3
-8 20 17 26 34 25 43 -2 6 -21 8 -21 12 -4 3 10 -1 22 -9 27 -10 7 -11 12 0
29 6 11 12 26 12 33 0 18 69 97 85 97 7 0 18 7 25 15 18 22 54 18 96 -10 42
-29 66 -31 84 -10 16 19 4 48 -40 99 -21 24 -34 50 -37 78 -3 24 -14 60 -24
80 -26 51 -24 108 8 208 25 81 123 250 145 250 4 0 8 341 8 758 l0 758 -35 41
c-19 23 -35 48 -35 56 0 8 -12 36 -26 63 -14 27 -35 70 -45 96 -44 113 -225
416 -279 468 -40 38 -168 240 -243 380 -27 52 -56 102 -64 112 -8 9 -34 56
-59 105 -48 95 -160 292 -219 385 -43 70 -98 179 -115 233 -7 22 -19 54 -26
71 -66 154 -67 345 -2 469 17 33 36 85 43 115 7 30 17 75 23 100 35 142 42
197 42 319 0 73 -7 176 -15 229 -8 53 -21 158 -30 232 -9 74 -25 168 -35 209
-11 41 -20 84 -20 95 0 29 -50 178 -65 196 -7 8 -18 42 -25 75 -7 33 -18 71
-25 85 -6 14 -20 54 -29 90 -10 36 -24 72 -31 80 -7 8 -36 59 -64 113 -28 54
-64 117 -79 140 -16 23 -47 74 -69 112 -23 39 -72 105 -110 147 -37 42 -89
105 -116 140 -26 35 -68 83 -92 108 -25 25 -55 61 -67 80 -12 19 -38 49 -57
65 -89 76 -338 320 -355 348 -11 18 -39 63 -64 100 -59 91 -100 178 -108 229
-8 50 -28 85 -106 193 -32 44 -65 100 -72 125 -19 62 -110 215 -161 270 -23
25 -51 61 -61 80 -11 19 -31 50 -46 68 -16 18 -28 36 -28 40 0 5 -8 17 -17 28
-41 46 -81 101 -87 120 -3 11 -23 36 -44 56 -26 24 -46 57 -59 95 -11 32 -23
66 -27 76 -12 25 10 22 80 -11 32 -16 75 -35 94 -42 19 -8 73 -41 120 -73 47
-32 132 -88 188 -125 57 -37 125 -87 150 -111 26 -24 90 -78 142 -120 52 -41
118 -97 145 -123 28 -26 53 -48 56 -48 4 0 13 -20 20 -44 8 -27 22 -50 36 -57
12 -7 41 -34 64 -61 23 -27 57 -60 78 -72 20 -13 79 -63 131 -111 52 -48 147
-129 210 -180 267 -216 541 -486 575 -568 7 -18 38 -66 67 -107 35 -49 59 -97
71 -137 9 -34 40 -106 67 -160 97 -187 144 -317 180 -498 12 -60 36 -166 52
-235 16 -69 34 -164 38 -212 5 -48 12 -93 16 -99 4 -7 6 -49 5 -95 0 -46 3
-103 9 -127 8 -37 5 -57 -15 -123 -33 -105 -33 -140 1 -127 7 3 16 21 20 41 4
21 11 43 16 49 14 17 31 141 33 238 1 44 5 109 9 145 5 45 2 88 -9 138 -8 40
-15 98 -15 127 0 30 -9 76 -19 102 -10 27 -22 76 -26 108 -6 52 -55 248 -85
341 -5 17 -10 36 -10 43 0 7 -15 45 -34 84 -41 89 -68 155 -94 232 -11 33 -29
83 -40 110 -11 28 -30 75 -41 105 -29 74 -48 106 -87 149 -19 19 -34 38 -34
42 0 4 -15 23 -32 41 -37 39 -99 124 -110 151 -4 9 -12 17 -18 17 -5 0 -10 6
-10 14 0 8 -24 35 -52 60 -60 51 -301 289 -366 360 -30 33 -70 61 -130 91 -48
24 -111 61 -141 84 -30 23 -57 41 -61 41 -13 0 -150 141 -150 155 0 24 44 17
87 -14 22 -16 76 -48 119 -71 43 -23 83 -46 88 -51 13 -12 76 -11 76 1 0 5 -6
14 -12 20 -7 6 -35 30 -62 55 -27 25 -95 68 -150 96 -56 28 -109 58 -118 66
-9 8 -27 13 -40 12 -17 -3 -38 11 -79 51 -110 107 -160 149 -189 155 -16 4
-54 30 -83 58 -64 61 -66 63 -136 106 -30 18 -76 54 -103 79 -59 56 -128 106
-188 137 -55 28 -171 105 -227 151 -23 19 -63 41 -88 48 -65 20 -259 184 -302
256 -26 44 -57 76 -129 135 -63 53 -182 130 -214 140 -76 23 -133 95 -159 200
-10 38 -1 125 27 250 16 76 3 394 -23 555 -8 47 -21 131 -29 186 -8 56 -29
141 -47 190 -48 135 -109 304 -128 354 -9 25 -28 63 -42 85 -15 22 -36 59 -48
83 -26 51 -20 56 64 50 30 -1 55 0 55 5 0 4 8 7 18 7 36 0 32 14 -14 56 -37
33 -57 43 -95 48 -38 5 -61 17 -106 55 -32 26 -71 56 -88 67 -16 10 -36 24
-42 30 -7 7 -29 22 -50 35 -21 12 -63 46 -93 75 -72 69 -135 101 -242 124 -51
11 -110 31 -141 49 -62 35 -80 37 -173 15 -77 -17 -103 -14 -142 21 -41 37
-109 86 -182 130 -36 21 -76 50 -90 63 -30 28 -145 97 -180 107 -13 4 -36 16
-50 25 -118 80 -299 163 -430 195 -79 20 -183 59 -232 88 -59 34 -132 101
-158 142 -12 20 -57 58 -103 89 -79 53 -96 65 -200 158 -82 72 -107 100 -107
119 0 36 -241 262 -331 310 -30 16 -76 47 -102 67 -86 69 -133 101 -178 122
-24 12 -59 30 -76 41 -18 12 -61 27 -95 35 -59 14 -142 50 -273 117 -33 17
-76 39 -96 49 -22 11 -59 19 -97 19 -35 1 -69 7 -79 15 -10 7 -28 14 -40 14
-12 0 -25 4 -28 10 -3 5 -20 10 -38 10 -18 0 -60 0 -94 0 -35 1 -71 -3 -81 -9
-12 -6 -33 -6 -58 -1 -58 14 -147 12 -253 -5 -96 -16 -121 -25 -154 -56 -12
-11 -34 -18 -56 -17 -21 0 -52 -7 -71 -17 -38 -20 -91 -75 -84 -87 11 -17 81
-8 99 12 10 11 36 23 57 26 22 4 45 15 53 27 12 17 28 20 127 24 62 3 133 11
158 18 66 19 357 19 387 0 12 -8 29 -15 38 -15 9 0 29 -7 45 -15 16 -8 62 -20
102 -25 53 -8 101 -24 173 -59 177 -86 234 -112 277 -125 24 -7 72 -32 107
-54 35 -23 68 -42 73 -42 5 0 45 -26 88 -57 44 -32 101 -71 127 -87 40 -26
179 -135 266 -211 42 -36 34 -66 -23 -82 -32 -10 -53 -10 -74 -3 -16 5 -55 10
-87 10 -32 0 -68 4 -81 9 -13 5 -61 14 -108 21 -81 12 -232 56 -330 98 -25 10
-88 27 -140 37 -52 10 -119 26 -149 36 -30 11 -66 19 -81 19 -14 0 -49 6 -76
14 -27 8 -118 18 -201 22 -127 5 -153 4 -152 -7 1 -35 103 -88 170 -89 20 0
68 -12 105 -26 42 -16 96 -28 139 -30 89 -5 118 -11 180 -39 68 -31 165 -65
187 -65 10 0 73 -18 139 -40 67 -22 134 -40 149 -40 16 0 84 -11 153 -24 68
-14 137 -24 153 -24 130 3 310 -91 420 -220 l66 -77 -7 -50 c-8 -62 -38 -103
-113 -153 -108 -72 -179 -100 -272 -107 -84 -6 -86 -6 -140 28 -35 21 -69 53
-93 88 -65 93 -118 142 -197 181 -81 40 -110 49 -240 73 -128 24 -303 113
-395 202 -71 69 -89 90 -121 139 -10 14 -36 34 -59 44 -23 10 -49 25 -59 35
-9 10 -34 21 -56 26 -21 5 -60 22 -87 38 -26 17 -66 38 -88 49 -22 10 -47 27
-55 36 -8 10 -25 22 -37 27 -26 9 -46 49 -33 63 11 11 30 -1 30 -19 0 -22 47
-29 93 -15 23 7 36 15 30 17 -7 3 -13 10 -13 17 0 17 -75 51 -90 41 -11 -7
-156 45 -256 91 -28 13 -56 24 -61 24 -6 0 -13 7 -16 14 -3 8 -21 23 -39 32
-18 9 -36 22 -40 27 -5 8 -14 8 -30 0 -13 -6 -31 -14 -40 -17 -21 -6 -100 27
-144 60 -17 13 -34 24 -38 24 -4 0 -35 13 -69 29 -126 60 -259 96 -388 106
-32 3 -82 14 -111 25 -29 11 -70 20 -90 20 -47 0 -188 31 -188 41 0 4 -18 10
-40 14 -23 4 -53 13 -68 20 -36 18 -76 27 -84 20z m-1524 -371 c13 -5 11 -11
-12 -34 -15 -16 -36 -38 -46 -49 -11 -12 -28 -21 -38 -21 -27 0 -100 -31 -124
-52 -11 -10 -24 -18 -28 -18 -4 0 -37 -20 -73 -45 -36 -25 -77 -48 -91 -52
-14 -3 -41 -16 -59 -29 -18 -12 -51 -25 -73 -29 -22 -4 -55 -17 -74 -30 -19
-13 -63 -31 -98 -40 -34 -9 -73 -22 -85 -30 -12 -8 -29 -15 -37 -15 -16 0 -72
-29 -116 -60 -14 -10 -68 -25 -121 -34 -53 -9 -114 -23 -135 -32 -61 -26 -121
-22 -176 10 -25 15 -52 33 -58 41 -7 8 -19 15 -26 15 -24 0 -16 54 11 80 13
12 60 41 103 64 44 22 90 49 103 59 13 10 40 27 59 39 34 21 58 34 201 111
127 68 350 127 486 127 27 0 71 7 98 14 51 15 377 22 409 10z m-1640 -714 c20
-7 26 -17 26 -39 0 -16 5 -42 10 -56 8 -22 5 -34 -15 -69 -14 -24 -25 -49 -25
-56 0 -7 -14 -31 -32 -54 -29 -38 -58 -63 -221 -188 -34 -26 -83 -64 -109 -85
-25 -21 -73 -53 -106 -73 -34 -19 -97 -57 -142 -85 -44 -27 -88 -55 -98 -60
-9 -6 -39 -25 -67 -43 -53 -35 -119 -57 -136 -46 -7 4 -8 42 -3 112 8 129 20
156 109 251 36 38 65 72 65 77 0 11 62 74 73 74 6 0 40 24 76 53 92 75 175
130 262 172 41 20 88 43 104 52 148 78 173 85 229 63z m-1073 -683 c-7 -20
-19 -41 -28 -49 -9 -7 -22 -28 -30 -45 -11 -27 -19 -33 -43 -33 -22 0 -30 -5
-30 -18 0 -24 -108 -117 -145 -125 -16 -3 -51 -1 -77 5 -74 15 -67 39 38 128
25 21 39 24 107 24 70 1 78 3 73 18 -2 10 -1 16 3 13 5 -2 14 13 20 33 14 41
56 95 81 104 8 3 21 0 29 -7 11 -10 11 -20 2 -48z m10087 -506 c15 -11 44 -22
65 -26 20 -3 37 -10 37 -15 0 -6 7 -10 15 -10 38 0 93 -50 133 -118 10 -18 10
-22 -1 -22 -15 0 -100 53 -134 83 -22 20 -128 67 -149 67 -7 0 -15 7 -18 16
-18 46 6 57 52 25z m-11440 -69 c10 -7 10 -14 -2 -36 -16 -31 -74 -86 -91 -86
-6 0 -35 -24 -66 -52 -30 -29 -77 -71 -104 -93 -82 -67 -149 -127 -170 -149
-11 -12 -43 -37 -70 -55 -28 -18 -64 -53 -80 -78 -21 -32 -42 -51 -70 -61 -22
-9 -41 -19 -43 -24 -7 -15 -22 -8 -22 11 0 22 43 67 85 88 38 20 51 37 70 95
12 35 31 60 72 95 71 62 108 99 160 161 25 29 62 59 90 72 26 12 60 33 74 46
14 13 52 35 85 48 70 29 66 28 82 18z m11424 -214 c12 -18 30 -42 40 -52 10
-11 18 -25 18 -31 0 -22 47 -95 94 -146 27 -30 55 -68 62 -86 8 -17 18 -34 24
-38 17 -10 90 -192 90 -224 0 -11 19 -95 42 -188 l43 -168 -1 -231 c-1 -231
-9 -294 -38 -294 -31 0 -75 134 -82 248 -6 107 -31 262 -44 277 -6 7 -15 39
-21 71 -5 33 -19 79 -31 104 -11 25 -24 80 -29 123 -4 43 -12 84 -17 90 -5 7
-15 37 -22 67 -7 30 -19 67 -26 82 -8 15 -14 35 -14 44 0 9 -16 34 -35 55 -19
22 -35 49 -35 62 0 13 -8 32 -17 43 -24 27 -40 52 -58 94 -28 61 -29 86 -6
109 28 28 36 27 63 -11z m-4504 -1258 c37 -23 77 -25 111 -6 17 10 49 12 110
9 91 -5 121 -21 121 -64 0 -25 15 -32 69 -32 46 1 87 -16 125 -49 11 -10 24
-18 29 -18 6 0 24 -10 41 -23 35 -25 60 -37 129 -62 26 -9 47 -21 47 -26 0
-13 31 -11 77 5 33 12 43 12 64 0 13 -7 34 -13 47 -14 12 0 22 -4 22 -10 0 -5
6 -10 14 -10 8 0 16 -3 18 -7 6 -14 67 -53 83 -53 8 0 15 -5 15 -10 0 -6 12
-16 28 -23 15 -6 33 -18 41 -25 7 -7 26 -16 42 -19 16 -3 29 -9 29 -14 0 -5 7
-9 15 -9 14 0 75 -36 105 -62 24 -20 122 -58 152 -58 15 0 32 -8 37 -17 6 -10
11 -14 11 -9 0 5 6 4 13 -1 6 -5 41 -20 77 -32 118 -41 223 -97 254 -135 16
-20 35 -36 43 -36 7 0 13 -9 13 -21 0 -13 4 -18 12 -13 8 5 9 2 5 -10 -8 -21
39 -122 67 -141 11 -8 15 -15 8 -15 -6 0 -12 -11 -12 -24 0 -18 7 -25 28 -29
15 -3 44 -22 66 -41 21 -20 45 -36 52 -36 8 0 14 -4 14 -10 0 -5 9 -10 21 -10
21 0 58 -36 59 -56 0 -7 20 -14 45 -16 37 -3 48 1 60 17 13 19 14 19 25 -12 7
-18 16 -33 21 -33 5 0 9 -13 9 -30 0 -28 2 -30 40 -30 40 0 40 0 42 -40 1 -22
2 -47 2 -56 1 -10 -14 -22 -39 -32 -22 -9 -41 -19 -43 -24 -2 -4 -10 -8 -18
-8 -17 0 -17 -7 -3 -49 8 -21 17 -31 32 -31 11 0 17 -3 14 -6 -4 -4 2 -19 12
-33 12 -17 17 -36 14 -54 -8 -40 5 -91 29 -117 15 -16 18 -25 10 -28 -7 -2
-12 -24 -12 -54 0 -43 4 -54 31 -79 17 -16 35 -29 40 -29 5 0 9 -20 9 -44 0
-24 5 -46 11 -48 6 -2 13 -51 16 -116 5 -100 4 -112 -11 -112 -12 0 -16 -9
-16 -40 0 -29 4 -40 15 -40 11 0 15 -11 15 -40 0 -36 -2 -40 -25 -40 -22 0
-25 -5 -25 -32 0 -18 -3 -42 -6 -53 -3 -14 7 -37 30 -70 20 -28 41 -62 47 -77
6 -15 21 -33 34 -42 24 -16 34 -62 37 -176 0 -30 6 -63 13 -73 7 -10 10 -37 7
-67 -3 -33 -1 -50 7 -50 6 0 11 7 11 16 0 8 5 12 10 9 6 -3 10 -28 10 -55 0
-26 4 -50 10 -52 11 -4 30 -249 30 -390 0 -57 4 -100 10 -103 7 -4 10 -66 9
-174 -1 -126 2 -173 12 -189 11 -18 11 -26 1 -42 -14 -24 -16 -106 -2 -115 6
-3 10 -28 10 -56 0 -27 -4 -49 -10 -49 -6 0 -10 -28 -10 -64 0 -36 5 -68 10
-71 6 -3 10 -28 10 -56 0 -27 -4 -49 -10 -49 -21 0 -8 -19 28 -41 20 -13 39
-26 42 -30 3 -4 27 -9 53 -10 l47 -3 0 -78 c0 -63 3 -78 15 -78 11 0 15 -11
15 -40 l0 -40 55 0 c48 0 55 -2 55 -20 0 -17 7 -20 39 -20 54 0 74 -33 77
-123 1 -49 6 -73 19 -87 10 -11 22 -17 26 -14 5 3 25 -11 44 -30 28 -29 35
-44 35 -76 0 -37 -2 -40 -40 -50 -34 -9 -60 -33 -60 -54 0 -3 14 -6 32 -6 17
0 50 -9 72 -19 23 -11 66 -24 96 -30 60 -13 70 -22 70 -65 0 -21 -3 -26 -12
-18 -7 5 -33 13 -58 17 -25 4 -55 17 -67 29 -15 14 -36 21 -67 22 -29 1 -54 9
-72 23 -15 11 -33 21 -40 21 -8 0 -14 5 -14 10 0 6 -7 10 -15 10 -8 0 -19 9
-25 19 -5 11 -28 30 -50 42 -22 13 -39 28 -37 33 6 17 52 18 88 2 25 -10 29
-15 14 -15 -17 -1 -17 -3 -5 -11 24 -15 30 -12 30 18 0 23 -7 32 -36 45 -19
10 -32 21 -29 27 14 23 -19 48 -74 55 -42 5 -62 14 -81 34 -33 35 -92 61 -138
61 -52 1 -113 16 -123 32 -5 7 -9 9 -9 5 0 -5 -13 5 -29 21 -33 33 -134 67
-226 76 -33 4 -92 14 -132 23 -66 14 -81 14 -190 -1 -106 -15 -124 -15 -173
-1 -60 16 -156 20 -164 6 -5 -7 -46 -15 -126 -26 -31 -4 -90 -27 -90 -35 0 -5
-13 -11 -30 -15 -16 -4 -30 -10 -30 -15 0 -5 -26 -14 -57 -20 -32 -6 -80 -18
-108 -26 -99 -28 -166 -43 -178 -38 -7 2 -33 -7 -57 -21 -25 -14 -53 -28 -62
-31 -10 -4 -18 -10 -18 -14 0 -4 -18 -15 -40 -26 -22 -10 -40 -25 -40 -31 0
-7 -7 -13 -15 -13 -8 0 -15 -6 -15 -14 0 -21 -114 -89 -170 -101 -19 -4 -37
-10 -40 -14 -9 -12 -50 -31 -65 -31 -8 0 -15 -6 -15 -14 0 -22 -75 -91 -120
-111 -22 -10 -40 -23 -40 -30 0 -11 -61 -35 -89 -35 -7 0 -27 -11 -45 -25 -18
-14 -38 -25 -45 -25 -7 0 -10 -4 -6 -10 8 -13 -54 -70 -77 -70 -22 -1 -58 -37
-58 -59 0 -12 -5 -21 -11 -21 -6 0 -25 -11 -43 -25 -18 -14 -37 -25 -42 -25
-12 0 -104 -87 -104 -99 0 -5 -16 -16 -35 -25 -19 -9 -35 -20 -35 -25 0 -4
-19 -20 -42 -35 -31 -20 -43 -24 -49 -14 -9 14 -11 12 -27 -17 -11 -19 -11
-19 -12 3 0 12 -4 22 -9 22 -5 0 -7 -9 -4 -20 9 -36 -7 -88 -38 -121 -17 -18
-44 -52 -59 -74 -16 -23 -40 -52 -54 -66 -14 -13 -26 -28 -26 -33 0 -5 -15
-27 -33 -50 -39 -48 -97 -142 -97 -156 0 -6 -3 -10 -8 -10 -4 0 -13 -13 -20
-29 -25 -56 -81 -119 -114 -129 -18 -6 -116 -13 -218 -16 -102 -3 -250 -12
-330 -21 -80 -9 -163 -14 -186 -11 -22 3 -83 -1 -135 -9 -152 -23 -192 -21
-234 16 -24 22 -35 40 -35 59 0 30 -31 74 -121 174 -30 33 -71 81 -89 106 -19
25 -43 51 -52 58 -10 7 -18 24 -18 37 0 13 -10 31 -21 39 -21 14 -21 14 7 18
27 3 25 5 -27 31 -31 15 -63 27 -72 27 -8 0 -24 12 -34 26 -16 21 -29 27 -71
30 -35 2 -58 10 -72 24 -11 11 -28 20 -39 20 -10 0 -24 7 -31 14 -6 8 -27 20
-46 26 -19 6 -34 18 -34 26 0 8 -10 14 -25 14 -17 0 -25 6 -25 16 0 9 -8 22
-17 29 -12 9 -16 24 -15 49 2 20 -2 36 -8 36 -5 0 -10 -11 -10 -25 0 -14 -2
-25 -5 -25 -6 0 -57 52 -53 54 2 2 18 9 36 16 38 15 52 5 52 -39 0 -30 56
-101 80 -101 10 0 22 -4 25 -10 3 -5 15 -10 26 -10 14 0 19 7 19 30 0 17 -5
30 -12 30 -21 1 -64 43 -79 78 -11 25 -20 32 -41 32 -16 0 -28 3 -28 8 0 4
-10 12 -22 17 -13 6 -24 20 -26 33 -3 19 -8 22 -30 19 -15 -2 -21 -2 -14 0 18
7 15 27 -8 41 -11 7 -20 19 -20 27 0 8 -9 15 -20 15 -11 0 -20 4 -20 8 0 15
-105 61 -155 67 -27 3 -58 8 -67 11 -12 4 -18 0 -19 -13 0 -10 -3 -13 -6 -5
-2 6 -11 12 -19 12 -8 0 -14 4 -14 9 0 14 -115 39 -134 29 -11 -6 -30 -1 -63
17 -26 14 -56 25 -66 25 -11 0 -28 11 -39 25 -11 14 -28 25 -39 25 -10 0 -19
7 -19 15 0 17 -65 22 -75 5 -4 -6 -24 0 -51 16 -28 17 -69 29 -116 35 -39 5
-75 14 -79 20 -5 8 -25 10 -60 6 -30 -4 -69 -2 -90 5 -32 9 -39 17 -46 47 -8
31 -13 37 -48 44 -47 10 -57 10 -148 1 -45 -4 -72 -3 -81 5 -17 14 -392 20
-543 8 -98 -8 -103 -7 -103 11 0 11 -10 27 -22 35 -22 15 -19 16 50 16 39 1
72 3 72 6 0 3 -11 18 -25 33 -14 15 -25 34 -25 43 0 15 34 42 92 74 16 9 14
13 -19 47 l-37 38 42 0 42 0 0 40 0 40 -45 0 -45 0 0 -55 0 -55 -40 0 c-29 0
-40 4 -40 15 0 8 9 15 20 15 17 0 20 7 20 40 0 33 -3 40 -20 40 -22 0 -23 6
-14 99 5 41 11 61 20 61 10 0 14 13 14 40 0 33 3 40 20 40 17 0 20 7 20 40 0
33 -3 40 -20 40 -17 0 -20 7 -20 39 0 23 8 48 20 64 17 21 20 40 20 124 l0 99
-35 34 c-34 33 -35 35 -35 117 0 81 -1 83 -24 83 -23 0 -24 3 -28 93 -4 94 7
147 29 147 18 0 16 8 -7 37 -26 33 -25 43 2 43 20 0 18 5 -20 43 l-42 43 0
173 c0 166 1 173 22 191 18 14 22 26 19 64 -2 41 0 46 18 46 18 0 21 6 21 40
0 22 -4 40 -10 40 -5 0 -10 18 -10 40 0 24 -5 40 -12 40 -8 0 -9 32 -5 120 4
66 3 120 -1 120 -16 0 3 122 21 135 9 7 17 24 17 37 0 14 7 31 15 38 8 7 15
18 15 24 0 6 -5 4 -11 -4 -8 -11 -9 -9 -3 10 4 14 11 40 15 59 4 19 17 48 30
64 18 25 21 38 16 91 -3 33 -9 71 -13 84 -4 16 -2 22 9 22 9 0 17 14 21 40 3
22 10 40 14 40 4 0 14 17 21 38 51 149 70 172 144 172 27 0 49 6 57 15 10 13
9 15 -9 15 -22 0 -28 14 -11 25 6 3 10 44 10 91 0 76 2 84 19 84 11 0 21 5 23
12 9 26 38 -2 38 -37 0 -34 1 -35 40 -35 22 0 40 5 40 10 0 6 6 10 13 10 8 0
20 18 27 40 12 36 40 56 40 28 0 -6 3 -8 7 -4 8 7 6 68 -3 99 -4 12 -16 17
-45 17 -32 0 -39 -3 -39 -20 0 -22 -1 -23 -24 -14 -13 5 -12 9 4 27 13 14 20
35 20 62 l0 41 40 -4 c32 -3 40 -1 40 13 0 15 4 14 35 -5 26 -16 43 -20 63
-15 15 4 21 10 14 12 -10 4 -8 9 5 19 16 12 16 15 3 23 -8 6 -15 25 -15 46 0
33 2 35 33 35 17 0 32 5 32 11 0 5 -4 8 -8 5 -4 -2 -14 -1 -22 4 -13 8 -12 12
3 27 13 14 17 14 17 3 0 -10 9 -5 25 12 14 15 25 30 25 33 0 18 67 75 87 75
16 0 23 6 23 19 0 13 11 21 43 27 34 8 42 13 41 32 0 12 4 22 10 22 6 0 31 18
56 40 42 37 54 44 72 41 25 -3 93 35 131 73 24 25 51 46 60 46 9 0 21 8 26 18
9 15 12 15 21 2 7 -10 12 -12 18 -4 4 6 24 17 45 25 20 7 37 19 37 27 0 9 6
12 16 8 9 -3 12 -2 9 5 -4 6 -1 10 6 8 31 -4 49 2 49 15 0 8 14 23 30 33 16 9
30 21 30 25 0 4 7 8 16 8 9 0 38 18 64 40 26 22 53 40 59 40 6 0 11 4 11 9 0
4 15 12 33 17 18 5 36 19 42 32 6 14 19 22 33 22 13 0 20 4 17 10 -7 11 42 33
55 25 5 -3 10 -2 12 2 1 5 20 17 41 27 36 19 39 19 68 2 32 -19 66 -18 87 2
11 9 11 16 3 26 -17 20 8 36 68 43 28 3 51 10 51 14 0 5 7 9 15 9 8 0 15 7 15
15 0 21 32 35 79 35 22 0 61 7 86 15 42 15 48 15 75 -2 36 -21 37 -26 10 -53
-20 -20 -20 -23 -5 -53 10 -19 12 -33 6 -35 -6 -2 -16 -22 -22 -45 -7 -23 -14
-36 -17 -28 -3 10 -9 8 -23 -10 -15 -20 -27 -24 -76 -24 -32 0 -59 -4 -60 -10
-2 -6 29 -9 79 -8 114 2 126 6 134 48 3 19 10 38 15 41 5 3 9 14 9 25 0 10 4
19 8 19 5 0 19 9 32 20 14 12 28 17 36 12 8 -4 30 -6 49 -4 34 4 40 13 36 50
-2 15 52 72 68 72 6 0 11 -5 11 -12 0 -9 3 -9 12 0 31 31 80 -7 58 -45 -5 -10
-14 -30 -20 -46 -5 -15 -18 -31 -27 -34 -10 -4 -23 -12 -28 -17 -16 -16 -55
-73 -55 -80 0 -3 32 -6 70 -6 67 0 70 1 70 24 0 15 17 42 43 69 37 39 50 46
110 58 37 7 67 16 67 21 0 4 18 26 40 48 29 29 48 40 70 40 17 0 30 -4 30 -10
0 -5 9 -10 20 -10 11 0 20 -5 20 -11 0 -6 23 -10 58 -9 31 1 100 -1 152 -4
228 -14 259 -21 309 -65 29 -25 107 -29 137 -6 17 13 17 14 2 15 -10 0 -18 4
-18 9 0 12 72 24 79 13 14 -21 75 -22 109 -2 38 23 143 60 171 60 10 0 39 11
62 25 29 16 59 25 90 25 37 0 48 4 52 19 5 21 97 71 130 71 30 0 107 39 107
55 0 29 53 32 98 5z m2659 -1505 c12 -22 23 -52 23 -67 0 -16 8 -31 18 -37 10
-5 29 -31 43 -58 13 -26 27 -49 32 -51 4 -2 7 -26 7 -53 0 -36 -4 -49 -14 -49
-8 0 -18 5 -21 10 -3 6 -19 10 -35 10 -16 0 -44 9 -62 20 -18 11 -41 20 -50
20 -20 0 -21 4 -18 80 1 35 9 67 23 89 11 19 16 31 9 27 -22 -13 -46 77 -25
98 17 16 49 -2 70 -39z m-12596 -66 c-11 -12 -23 -39 -26 -60 -4 -21 -22 -58
-41 -81 -18 -24 -34 -51 -34 -61 0 -24 -14 -50 -62 -114 -22 -31 -42 -73 -49
-102 -5 -27 -23 -70 -39 -95 -16 -25 -40 -76 -53 -115 -13 -38 -33 -79 -45
-91 -11 -12 -28 -42 -37 -68 -33 -89 -55 -96 -55 -19 0 61 17 122 64 227 6 14
21 34 32 45 20 18 54 99 54 128 -1 28 88 185 126 222 23 22 53 63 67 91 14 28
35 62 46 75 12 13 31 37 43 54 22 28 23 29 26 8 2 -12 -6 -32 -17 -44z m12407
-3861 c19 -19 15 -24 -30 -38 -24 -6 -77 -25 -118 -40 -43 -16 -116 -33 -170
-40 -245 -28 -384 -51 -453 -75 -88 -29 -87 -29 -87 -11 0 14 96 76 123 80 7
1 23 9 36 18 14 10 47 22 75 27 111 22 250 41 304 41 31 1 84 8 117 17 33 8
85 19 115 23 30 4 60 8 66 9 5 0 15 -4 22 -11z m89 -179 c27 -9 33 -15 33 -40
0 -30 -3 -32 -60 -33 -27 -1 -35 -5 -34 -18 1 -12 -5 -18 -20 -18 -13 0 -26
-3 -30 -7 -17 -17 -89 -34 -171 -39 -64 -4 -94 -11 -102 -22 -10 -13 -17 -13
-35 -4 -13 6 -35 16 -50 22 -45 16 -37 47 15 61 23 6 57 17 75 25 18 8 39 14
47 14 7 0 20 6 27 13 25 24 113 44 242 55 16 1 44 -2 63 -9z m138 -75 c41 -11
80 -14 122 -10 64 7 157 -9 148 -25 -3 -4 42 -7 100 -6 71 1 108 -2 113 -10 4
-6 33 -16 65 -22 32 -6 63 -14 70 -18 6 -4 59 -10 117 -14 99 -6 110 -9 163
-43 31 -20 57 -40 57 -44 1 -4 3 -88 6 -188 5 -171 4 -181 -15 -198 -19 -18
-20 -18 -25 5 -3 13 -7 58 -10 99 -5 78 -12 110 -26 110 -16 0 -27 -56 -21
-100 6 -42 -12 -130 -26 -130 -12 0 -32 36 -33 58 0 19 -5 22 -40 22 -36 0
-40 -2 -40 -26 0 -33 -21 -54 -54 -54 -18 0 -26 -5 -26 -17 -1 -17 -1 -17 -14
0 -7 9 -21 17 -30 17 -9 0 -16 4 -16 10 0 5 -22 17 -50 27 -44 15 -50 21 -50
45 0 22 -5 28 -22 30 -13 1 -32 2 -43 3 -55 5 -175 30 -175 37 0 12 -158 10
-162 -3 -2 -5 -11 -7 -21 -4 -9 4 -15 11 -12 16 8 12 -50 39 -85 39 -36 0 -71
-27 -51 -39 22 -14 -42 -33 -105 -32 -34 1 -73 -3 -87 -8 -31 -12 -83 12 -93
42 -7 23 -24 22 -24 -3 0 -21 -24 -28 -35 -10 -3 6 -15 10 -27 10 -18 0 -20
-4 -14 -40 6 -39 6 -40 -24 -40 -16 0 -30 4 -30 9 0 14 34 71 43 71 4 0 7 7 7
15 0 8 -17 19 -40 26 -22 7 -40 18 -40 26 0 9 -13 13 -40 13 -28 0 -40 4 -40
14 0 11 22 16 88 21 88 6 137 19 160 41 16 17 15 24 -5 24 -17 0 -63 37 -63
52 0 4 14 8 30 8 23 0 30 5 30 19 0 16 11 20 78 26 42 4 80 12 83 17 4 6 40
13 80 16 41 2 76 8 79 11 3 4 22 17 43 30 39 24 48 41 22 41 -19 0 -65 29 -65
41 0 12 6 12 75 -7z m1871 -40 c32 -16 40 -25 42 -52 4 -41 -10 -59 -66 -83
-71 -31 -212 -50 -234 -32 -7 6 -38 16 -69 22 -75 16 -117 63 -81 93 85 70
312 99 408 52z m-8596 -211 l25 -10 -36 -16 c-20 -8 -60 -18 -90 -22 -86 -13
-287 -7 -374 11 -44 9 -87 16 -95 16 -30 -2 -111 10 -106 16 19 18 635 23 676
5z m1306 -173 c31 -11 67 -20 79 -20 13 0 38 -6 56 -14 19 -7 48 -12 65 -9 20
3 49 -3 80 -17 27 -13 78 -29 114 -36 72 -16 105 -38 80 -55 -23 -15 -104 -2
-220 37 -58 19 -131 37 -162 39 -51 4 -190 44 -205 58 -12 12 6 33 30 35 14 1
51 -7 83 -18z m-536 -275 c25 -7 57 -16 73 -19 42 -10 36 -43 -10 -55 -21 -6
-50 -11 -64 -11 -33 0 -116 36 -122 53 -6 17 44 58 63 51 8 -3 35 -12 60 -19z
m4038 -16 c2 -5 25 -9 52 -9 l48 0 -11 -30 c-11 -28 -35 -37 -29 -11 1 6 -5
11 -13 11 -17 0 -9 -29 14 -46 13 -10 12 -13 -5 -22 -10 -5 -33 -13 -50 -16
-17 -4 -46 -22 -65 -41 -19 -19 -41 -35 -50 -35 -9 0 -19 -9 -22 -20 -3 -11
-14 -20 -25 -20 -10 0 -27 -9 -37 -20 -17 -19 -52 -29 -41 -12 3 5 -8 16 -25
26 -28 17 -32 26 -31 76 0 46 2 50 17 50 21 0 89 66 81 79 -4 5 3 15 14 21 11
6 20 9 20 6 0 -3 19 4 43 15 42 19 108 18 115 -2z m1078 -14 c31 -14 69 -25
85 -25 16 0 50 -8 76 -17 34 -12 74 -16 138 -15 l90 2 -45 -26 c-48 -28 -136
-38 -161 -18 -8 6 -56 14 -107 18 -77 5 -99 3 -125 -11 -23 -12 -64 -18 -142
-20 -60 -2 -137 -8 -169 -13 -32 -5 -63 -7 -68 -4 -4 3 -12 -5 -16 -17 -6 -16
-11 -19 -17 -10 -5 10 -14 6 -31 -14 -13 -16 -24 -23 -24 -17 0 19 -20 14 -21
-5 -1 -17 -2 -17 -6 0 -2 9 -9 17 -14 17 -5 0 -12 0 -16 0 -5 0 -8 -6 -8 -12
0 -15 -34 -19 -160 -18 -49 0 -91 5 -93 10 -2 6 -16 10 -30 10 -15 0 -33 4
-41 9 -11 7 -6 13 19 26 27 14 48 16 121 10 93 -7 118 -2 99 20 -8 10 -4 14
17 18 62 12 120 29 153 44 19 9 56 18 82 21 26 2 46 8 43 12 -11 17 51 33 161
40 66 4 127 8 136 9 10 0 43 -10 74 -24z m-7193 -8 c-1 -15 4 -18 23 -14 13 2
21 0 18 -4 -3 -5 -16 -9 -28 -9 -13 0 -41 -6 -62 -14 -23 -8 -48 -10 -60 -6
-15 6 -26 3 -37 -11 -9 -10 -26 -19 -37 -19 -11 0 -20 -4 -20 -10 0 -5 -9 -10
-20 -10 -11 0 -20 5 -20 10 0 6 -9 10 -20 10 -13 0 -20 7 -20 18 0 14 14 21
68 31 37 7 75 13 84 14 9 1 15 5 12 9 -5 8 72 27 101 25 13 -1 19 -9 18 -20z
m525 -110 c10 -8 10 -13 0 -24 -9 -12 -26 -14 -65 -10 -49 5 -53 4 -65 -21
-11 -22 -21 -26 -61 -28 -61 -4 -101 -23 -105 -52 -2 -12 -10 -22 -18 -22 -8
0 -14 -4 -14 -10 0 -15 -46 -12 -59 3 -6 8 -7 17 -3 21 4 4 -5 5 -19 1 -24 -6
-26 -4 -21 20 3 17 -1 31 -9 36 -11 7 -8 14 16 34 17 13 39 33 51 45 23 22 44
26 44 10 0 -7 6 -7 19 0 29 15 61 12 61 -5 0 -11 11 -15 40 -15 28 0 40 4 40
14 0 8 12 16 28 18 40 6 125 -3 140 -15z m4776 -59 c-4 -13 -15 -34 -25 -47
-13 -16 -17 -32 -12 -50 8 -34 8 -34 32 -21 14 7 20 18 18 33 -2 12 -2 16 0
10 3 -8 24 -13 59 -13 30 0 53 4 50 8 -2 4 27 19 65 32 38 13 69 27 69 32 0 4
9 8 20 8 17 0 20 -7 20 -40 0 -22 5 -40 10 -40 6 0 10 -9 10 -20 0 -11 5 -20
10 -20 6 0 10 -18 10 -40 l0 -41 38 7 c20 4 45 11 54 15 23 12 28 11 28 -6 0
-15 -21 -50 -75 -124 -14 -19 -25 -47 -25 -62 0 -21 -5 -29 -17 -29 -15 -1
-14 -4 6 -20 29 -25 42 -25 48 0 4 15 11 18 27 14 30 -7 91 33 107 69 17 40
29 33 29 -17 0 -26 5 -47 13 -50 6 -4 2 -4 -9 -2 -20 3 -21 0 -17 -33 4 -31 0
-42 -36 -81 -81 -89 -91 -101 -91 -110 0 -4 -7 -10 -15 -14 -22 -8 -18 -41 8
-59 18 -12 20 -18 10 -28 -10 -10 -13 -10 -13 -1 0 24 -20 11 -45 -28 -40 -63
-33 -88 53 -178 7 -8 10 -17 8 -21 -5 -8 39 -25 91 -36 38 -8 133 -94 157
-142 9 -18 27 -35 40 -39 21 -5 23 -10 18 -55 -5 -53 2 -59 52 -40 37 15 72
-6 86 -51 9 -33 15 -38 41 -38 17 0 39 -5 50 -10 17 -10 19 -7 20 37 1 26 1
52 0 56 -1 5 4 5 10 1 7 -4 10 -25 7 -54 -4 -43 -2 -49 19 -59 13 -6 32 -11
41 -11 9 0 32 -9 50 -20 22 -14 50 -20 88 -20 35 0 61 -5 70 -15 8 -8 34 -20
57 -26 23 -6 53 -17 67 -24 25 -13 185 -19 417 -16 79 1 104 5 114 17 17 21
47 32 106 40 27 3 56 10 65 15 9 5 28 9 42 9 22 0 26 5 26 28 0 16 7 37 15 48
14 18 14 18 8 -3 -6 -28 0 -28 38 -6 24 15 31 15 38 4 7 -11 12 -11 30 0 11 8
21 16 21 20 0 3 29 20 65 39 36 18 88 55 117 82 32 30 67 52 88 56 32 7 36 12
46 59 6 28 14 55 18 61 3 5 -1 12 -9 16 -26 9 -16 76 11 76 8 0 14 6 14 14 0
9 25 18 78 26 42 8 83 20 90 27 7 7 27 13 43 13 29 0 29 0 29 58 l0 59 -40 18
c-22 10 -40 24 -40 32 0 15 16 17 25 3 3 -5 17 -10 31 -10 17 0 24 -5 24 -20
0 -25 10 -25 41 -2 38 28 121 28 159 1 20 -15 27 -26 20 -33 -14 -14 -12 -26
5 -26 10 0 15 -11 16 -32 5 -198 8 -226 23 -262 12 -29 17 -79 20 -185 3 -87
9 -158 17 -176 12 -28 13 -29 16 -7 3 12 8 22 13 22 13 0 30 67 30 118 0 23 4
42 9 42 4 0 11 35 15 78 3 42 10 78 15 80 5 2 7 68 4 157 -5 133 -4 156 10
170 9 8 19 32 22 53 11 66 15 82 23 81 28 -5 42 3 43 24 l0 22 11 -22 c6 -13
17 -23 23 -23 13 0 87 -69 123 -115 14 -18 22 -42 22 -66 0 -28 4 -39 15 -39
18 0 22 -76 4 -82 -8 -3 -10 -27 -5 -81 6 -63 11 -77 25 -77 21 0 51 -72 32
-78 -6 -2 -11 -18 -11 -35 0 -34 39 -158 53 -168 12 -9 12 -110 0 -117 -5 -4
-11 -31 -12 -59 -1 -29 -6 -64 -11 -78 -6 -15 -10 -36 -10 -48 0 -12 -11 -51
-24 -87 -27 -72 -58 -177 -61 -200 -2 -25 -37 -124 -51 -145 -7 -11 -20 -41
-29 -65 -28 -84 -75 -155 -167 -258 -27 -30 -48 -58 -48 -64 0 -6 -51 -62
-112 -125 -158 -160 -262 -240 -333 -257 -62 -14 -301 -89 -333 -103 -19 -8
-79 -21 -135 -28 -56 -7 -131 -18 -166 -24 -111 -18 -358 -24 -471 -11 -58 7
-143 16 -190 20 -47 5 -112 13 -145 20 -33 6 -94 17 -135 25 -41 8 -101 17
-133 21 -47 4 -71 14 -123 50 -35 24 -67 44 -69 44 -17 0 -168 78 -210 109
-80 57 -159 124 -201 171 -21 24 -58 64 -82 89 -42 45 -111 143 -162 230 -14
23 -36 59 -49 79 -13 20 -28 50 -34 67 -5 16 -16 37 -24 46 -14 17 -62 133
-90 219 -8 25 -28 77 -44 115 -16 39 -32 86 -35 105 -4 19 -18 59 -31 89 -27
63 -53 168 -53 216 0 18 -9 52 -20 76 -11 24 -20 59 -20 77 0 18 -9 74 -19
125 -13 61 -23 174 -30 337 -6 135 -13 282 -16 327 -4 58 -1 94 9 120 8 21 17
66 19 100 4 49 11 70 31 94 14 17 26 35 26 40 0 18 73 89 92 89 15 0 18 -4 12
-22z m1021 -44 c28 -1 64 -3 81 -3 46 -1 51 -26 5 -28 -52 -2 -104 -14 -121
-27 -8 -7 -27 -17 -42 -24 -22 -9 -26 -9 -22 3 4 10 -2 13 -23 13 -15 -1 -39
2 -53 5 -14 4 -8 -1 13 -10 31 -13 37 -20 37 -47 0 -41 -29 -60 -80 -51 -34 6
-39 10 -45 43 -5 25 -3 38 5 40 7 3 21 13 31 23 11 11 25 19 32 19 8 0 22 10
33 21 25 28 54 40 79 32 11 -4 43 -7 70 -9z m-4981 -15 c35 -16 65 -35 85 -53
16 -15 30 -16 90 -10 47 4 80 13 96 26 59 46 155 57 210 23 11 -7 44 -18 73
-24 95 -20 220 -95 222 -133 0 -17 45 -58 62 -58 10 0 18 -5 18 -11 0 -8 18
-10 59 -6 47 5 60 3 65 -8 3 -8 13 -15 22 -15 13 0 14 -3 4 -15 -6 -8 -15 -14
-18 -13 -13 3 -62 -14 -62 -21 0 -13 65 -81 78 -81 6 0 12 -7 12 -15 0 -28 26
-15 39 20 7 19 18 36 24 36 7 1 -1 5 -18 10 -24 7 -20 7 18 4 38 -4 55 -12 80
-37 18 -18 47 -44 64 -58 27 -21 32 -32 33 -66 l0 -42 37 9 c21 4 39 13 41 18
11 34 82 -10 82 -50 0 -15 5 -19 15 -15 10 4 15 -1 15 -15 0 -12 -10 -23 -25
-29 -32 -12 -33 -40 -2 -40 12 0 28 -9 35 -20 7 -11 19 -20 27 -20 8 0 15 -6
15 -14 0 -8 2 -20 5 -28 3 -7 0 -20 -5 -28 -9 -13 -13 -12 -29 8 -11 12 -24
22 -29 22 -5 0 -12 7 -16 15 -6 18 -32 20 -42 4 -8 -13 15 -89 28 -89 4 0 7
-3 7 -7 -3 -21 3 -32 20 -38 27 -8 32 -49 9 -64 -33 -20 -53 -9 -150 85 -5 5
-29 36 -54 68 -51 68 -76 91 -119 112 -16 8 -38 26 -49 41 -19 29 -91 88 -136
112 -14 7 -45 32 -70 56 -40 38 -175 112 -240 131 -14 4 -41 17 -60 29 -36 22
-41 24 -147 49 -34 7 -65 16 -70 19 -5 4 -39 11 -76 17 -37 6 -79 15 -94 22
-16 6 -47 13 -70 15 -23 2 -79 17 -123 33 -45 17 -92 30 -105 30 -39 0 -47 62
-14 105 20 24 26 26 67 20 25 -4 55 -11 66 -16z m-2739 -51 c78 -35 -50 -106
-210 -115 -90 -6 -94 -5 -129 22 -29 22 -34 30 -26 45 13 24 34 30 145 46 119
16 188 17 220 2z m2496 -86 c23 -18 12 -50 -20 -56 -46 -10 -294 -34 -306 -30
-6 3 -29 -2 -50 -9 -22 -8 -45 -12 -52 -10 -6 2 -35 -9 -65 -26 -50 -28 -59
-30 -144 -27 -87 3 -93 4 -125 34 -33 30 -33 31 -15 51 24 26 58 27 81 1 21
-23 44 -19 115 16 29 15 79 26 143 33 55 6 108 16 120 23 13 6 53 9 106 6 47
-3 100 -1 116 3 42 10 77 7 96 -9z m6329 -20 c25 -9 59 -24 75 -33 17 -9 46
-20 65 -24 19 -4 46 -15 60 -25 14 -9 37 -25 53 -34 23 -14 26 -20 17 -36 -6
-12 -21 -20 -35 -20 -29 0 -32 -19 -9 -55 24 -36 18 -150 -9 -183 -8 -10 -4
-20 16 -39 22 -22 28 -24 41 -13 13 10 16 10 16 -4 0 -9 -7 -16 -15 -16 -9 0
-18 -6 -21 -14 -3 -8 -13 -16 -23 -19 -9 -2 -24 -18 -32 -35 -19 -39 -104
-101 -184 -133 -33 -13 -74 -33 -92 -45 -17 -12 -53 -24 -80 -28 -63 -8 -143
-35 -166 -54 -21 -19 -27 -20 -182 -26 -66 -2 -133 -9 -148 -15 -36 -14 -217
-3 -234 14 -18 19 28 36 122 46 206 22 264 37 294 72 7 10 19 17 26 17 22 0
182 164 189 195 4 17 13 37 21 45 7 8 36 61 65 118 50 98 53 107 52 176 0 41
-6 92 -13 115 -11 36 -10 43 6 60 19 22 48 21 125 -7z m-642 -102 c41 -25 45
-71 8 -95 -31 -21 -121 -31 -139 -16 -13 10 -14 20 -8 67 1 15 72 64 91 64 8
0 30 -9 48 -20z m-669 -263 c6 -8 15 -38 21 -67 14 -74 48 -131 85 -143 17 -5
46 -24 65 -42 19 -18 42 -35 51 -38 24 -8 13 -64 -15 -73 -43 -14 -160 -8
-198 10 -21 10 -38 21 -38 25 0 14 -41 51 -51 46 -14 -9 -23 23 -11 38 7 8 8
26 3 49 -17 72 29 206 70 208 4 0 12 -6 18 -13z m-1679 -51 c52 -5 103 -12
112 -17 28 -15 85 -121 98 -181 6 -31 19 -67 29 -80 13 -17 24 -70 40 -208 12
-102 26 -218 31 -258 6 -40 10 -101 10 -135 1 -34 8 -80 16 -102 15 -39 28
-85 61 -210 17 -63 67 -226 88 -285 15 -41 40 -51 48 -19 9 33 24 14 38 -46 7
-30 16 -55 20 -55 9 0 94 -125 119 -174 8 -16 31 -47 51 -70 20 -22 45 -58 56
-78 11 -21 33 -50 49 -67 16 -16 54 -59 84 -95 81 -98 132 -148 180 -176 24
-14 60 -41 80 -60 66 -62 195 -150 219 -150 5 0 22 -10 38 -22 37 -30 70 -48
87 -48 7 0 19 -7 26 -15 7 -8 20 -15 29 -15 19 0 71 -49 71 -67 0 -6 24 -13
53 -17 57 -8 114 -25 136 -41 8 -5 30 -18 50 -27 20 -10 30 -17 23 -18 -7 0
-10 -4 -7 -10 8 -13 62 -13 70 1 4 6 26 8 58 4 29 -3 66 -8 82 -10 17 -2 45
-4 63 -4 21 -1 32 -6 32 -16 0 -8 11 -17 25 -21 14 -3 25 -10 25 -14 0 -4 23
-8 52 -9 29 0 55 -6 59 -13 7 -10 11 -10 21 0 22 22 207 10 215 -14 4 -12
-105 -54 -139 -54 -11 0 -18 -7 -18 -20 0 -33 33 -39 145 -27 33 4 121 9 195
12 74 4 136 10 138 15 2 5 24 0 48 -11 49 -20 114 -26 114 -9 0 6 24 10 53 10
37 0 48 3 37 10 -12 8 -11 10 8 10 12 0 22 -4 22 -10 0 -5 10 -10 23 -10 18 0
19 2 7 10 -10 6 -11 10 -2 10 6 0 12 7 12 15 0 11 11 15 40 15 22 0 40 -4 40
-10 0 -17 24 -10 53 15 29 26 35 50 15 59 -7 3 -1 3 14 0 18 -4 33 0 44 11 9
9 23 14 31 11 8 -3 30 -6 49 -6 27 0 34 -4 34 -20 0 -18 7 -20 80 -20 44 0 80
4 80 8 0 14 74 36 78 23 2 -6 27 -11 62 -11 l57 0 7 -42 c5 -28 10 -38 15 -29
11 17 21 -9 21 -55 l0 -34 -67 0 -68 -1 28 -24 c15 -13 27 -31 27 -40 0 -8 6
-15 14 -15 9 0 15 -16 18 -49 6 -64 -1 -111 -17 -111 -10 0 -6 -14 11 -44 24
-43 25 -50 20 -178 -7 -181 -5 -178 -72 -171 -50 5 -54 4 -54 -16 0 -12 -6
-31 -12 -42 -10 -17 -10 -23 0 -26 18 -7 16 -83 -3 -83 -8 0 -15 -8 -15 -19 0
-10 -3 -46 -6 -80 l-7 -61 42 0 c22 0 41 -4 41 -10 0 -16 -37 -30 -79 -30 -38
0 -41 -2 -51 -40 -6 -21 -15 -42 -20 -45 -6 -3 -10 -36 -10 -72 0 -61 -2 -67
-35 -100 -26 -26 -35 -43 -35 -69 0 -24 5 -34 15 -34 11 0 15 -11 15 -40 0
-33 -3 -40 -20 -40 -16 0 -20 -7 -20 -34 0 -53 -9 -66 -57 -87 -32 -14 -43
-24 -39 -34 7 -18 -24 -84 -40 -85 -6 0 -17 -19 -25 -42 -7 -23 -24 -55 -38
-71 -16 -19 -26 -45 -29 -78 -4 -43 -2 -49 14 -50 12 0 3 -8 -23 -22 l-43 -21
0 -58 c0 -32 -4 -58 -9 -58 -15 0 -31 -59 -31 -111 0 -42 -3 -49 -20 -49 -26
0 -61 -67 -41 -79 16 -10 11 -76 -6 -77 -7 -1 -22 -2 -33 -3 -17 -1 -20 -8
-20 -50 0 -32 -5 -51 -14 -54 -7 -3 -24 -28 -37 -56 -12 -28 -28 -51 -34 -51
-7 0 -19 -8 -28 -17 -14 -16 -18 -30 -33 -101 -2 -13 -9 -20 -14 -17 -6 4 -13
-7 -16 -24 -4 -17 -10 -31 -15 -31 -5 0 -9 -7 -9 -15 0 -9 -8 -19 -17 -22 -10
-4 -21 -11 -25 -17 -4 -7 -21 2 -43 24 l-35 34 0 -42 c0 -36 3 -42 22 -42 l21
0 -21 -23 c-12 -13 -22 -31 -22 -40 0 -12 -9 -17 -31 -17 -24 0 -29 -3 -25
-18 4 -10 -3 -27 -17 -42 -13 -14 -29 -40 -35 -59 -14 -40 -43 -65 -55 -48 -4
7 -4 -7 -1 -30 5 -34 4 -43 -8 -43 -9 0 -18 -13 -22 -30 -3 -17 -21 -46 -41
-65 -19 -20 -35 -42 -35 -50 0 -9 -9 -15 -23 -15 -27 0 -93 -63 -82 -79 3 -6
1 -27 -5 -46 -9 -27 -17 -35 -35 -35 -13 0 -31 -10 -39 -22 -15 -21 -16 -21
-16 -3 0 15 -3 16 -9 7 -4 -7 -6 -25 -3 -39 5 -25 3 -26 -31 -20 -57 9 -76 0
-88 -47 -15 -56 -23 -71 -41 -71 -16 0 -78 -49 -78 -62 -1 -4 -19 -21 -40 -38
-21 -16 -39 -36 -40 -43 -1 -27 -33 -62 -56 -62 -21 0 -24 -5 -24 -40 l0 -40
43 -1 42 -1 -30 -13 c-37 -16 -82 -65 -60 -65 24 0 17 -17 -10 -24 -18 -5 -25
-13 -25 -31 0 -18 -5 -25 -20 -25 -13 0 -20 -7 -20 -19 0 -10 -12 -26 -26 -36
-24 -16 -28 -16 -42 -1 -14 13 -14 20 -5 35 15 24 6 28 -48 23 l-39 -4 0 -52
c-1 -47 -4 -53 -40 -81 -21 -16 -39 -36 -40 -42 0 -7 -4 -13 -8 -13 -5 0 -15
-11 -22 -25 -7 -14 -22 -25 -31 -25 -18 0 -45 -31 -51 -60 -2 -8 -5 -17 -8
-20 -19 -18 -40 -63 -40 -86 0 -26 0 -27 20 -9 19 18 20 17 20 -2 0 -11 -6
-26 -14 -32 -19 -16 -66 -24 -66 -11 0 17 -43 11 -67 -9 -16 -14 -23 -30 -23
-55 0 -34 -2 -36 -33 -36 -37 0 -57 -27 -57 -79 0 -27 -1 -28 -54 -23 -65 5
-122 -12 -129 -38 -3 -13 -14 -20 -30 -20 -17 0 -27 -7 -31 -22 -5 -18 -8 -20
-15 -9 -7 12 -20 11 -82 -4 -41 -9 -91 -28 -112 -42 -22 -13 -41 -22 -44 -19
-9 9 -83 -36 -83 -51 0 -10 -15 -13 -57 -11 -32 1 -68 -4 -80 -10 -17 -9 -22
-9 -26 1 -3 9 -9 9 -25 0 -11 -7 -44 -15 -74 -18 -29 -4 -69 -12 -88 -18 -19
-6 -68 -10 -109 -8 -69 3 -186 -15 -377 -55 -39 -9 -84 -15 -100 -14 -44 3
-48 2 -72 -21 -20 -18 -33 -20 -105 -17 -75 3 -83 1 -85 -16 -1 -24 -4 -26
-30 -19 -12 3 -22 12 -22 20 0 8 -8 13 -17 12 -34 -3 -40 1 -52 39 l-13 38
-90 2 c-63 2 -94 7 -104 17 -9 8 -40 22 -70 31 -30 8 -54 20 -54 25 0 5 -13 9
-28 9 -23 0 -30 6 -41 35 -15 42 -44 74 -88 100 -20 12 -33 27 -33 40 -1 35
-35 65 -73 65 -31 0 -35 4 -47 40 -10 30 -19 40 -35 40 -15 0 -25 10 -34 35
-7 19 -10 39 -7 44 4 5 -5 18 -19 29 -14 11 -25 27 -25 36 0 9 -5 16 -11 16
-6 0 -9 6 -6 13 2 6 10 11 17 9 6 -1 26 6 44 18 18 11 36 17 39 14 3 -3 14 -1
23 4 14 8 18 20 15 56 -2 41 0 46 18 46 12 0 21 -5 21 -11 0 -5 5 -7 12 -3 9
6 9 9 0 12 -8 2 -12 26 -12 63 l0 59 40 0 c33 0 40 3 40 20 0 11 7 20 15 20
11 0 15 11 15 40 0 29 -4 40 -15 40 -10 0 -15 -10 -15 -30 0 -28 -2 -30 -40
-30 -22 0 -40 -4 -40 -10 0 -5 -18 -10 -40 -10 l-40 0 0 -62 -1 -63 -19 24
c-12 14 -20 38 -20 62 0 32 3 39 20 39 17 0 20 7 20 40 l0 40 -40 0 -40 0 0
-40 0 -40 -50 0 -50 0 0 40 0 40 40 0 40 0 0 40 c0 22 -4 40 -10 40 -5 0 -10
18 -10 40 0 39 -1 40 -35 40 -37 0 -44 10 -21 29 9 7 15 8 18 2 6 -17 78 12
78 31 0 14 9 18 40 18 33 0 40 -3 40 -20 0 -14 7 -20 24 -20 13 0 39 -6 57
-14 19 -7 40 -11 48 -8 8 2 11 0 8 -6 -8 -11 25 -22 71 -22 17 0 32 -4 32 -9
0 -10 86 -61 104 -61 6 0 17 -9 24 -20 7 -11 20 -20 30 -20 10 0 23 -5 29 -11
6 -6 24 -12 39 -13 62 -6 94 -18 94 -37 0 -18 9 -19 120 -19 97 0 122 3 126
15 3 8 22 17 42 21 21 3 51 12 69 20 39 18 118 18 169 1 31 -11 94 -15 107 -8
9 6 159 14 235 13 50 -1 92 2 92 6 0 8 161 29 240 30 54 2 169 21 191 32 35
18 106 32 175 34 82 3 135 29 153 74 15 40 45 71 81 84 18 6 35 21 40 34 5 13
17 24 27 24 10 0 41 12 68 26 60 30 75 34 140 35 43 1 55 6 90 37 22 20 39 40
37 45 -1 4 7 17 18 29 11 12 20 28 20 35 0 7 3 13 8 13 4 0 18 18 32 40 14 22
28 40 32 40 5 0 8 18 8 40 0 33 3 40 20 40 17 0 20 7 20 40 0 33 -3 40 -20 40
-16 0 -20 7 -20 34 0 19 -4 38 -10 41 -5 3 -10 1 -10 -6 0 -10 -3 -10 -12 -1
-7 7 -20 12 -30 12 -14 0 -18 8 -18 40 0 31 4 40 17 40 9 0 34 18 54 40 21 22
47 40 59 40 11 0 30 9 42 20 l22 20 -21 20 c-36 33 -52 159 -23 180 11 8 20
81 9 75 -5 -4 -9 -1 -9 4 0 6 18 11 40 11 34 0 40 -3 41 -22 1 -17 2 -19 6 -5
2 9 9 17 14 17 5 0 9 7 9 15 0 9 13 23 28 32 16 9 46 41 66 70 39 56 66 73
116 73 20 0 37 10 57 33 15 18 46 44 68 57 22 13 42 27 45 31 3 4 19 10 35 14
l30 6 -26 -23 c-15 -13 -29 -39 -33 -60 -7 -36 -5 -38 18 -38 22 0 27 6 32 40
4 22 10 40 14 40 5 0 26 17 48 38 l40 39 -28 30 c-24 25 -40 32 -87 38 -55 6
-110 -5 -123 -25 -7 -11 -130 -70 -147 -70 -7 0 -13 -3 -13 -7 0 -5 -22 -23
-49 -42 -66 -44 -162 -71 -224 -61 -26 4 -47 4 -47 0 0 -4 -12 -13 -27 -21
-29 -14 -213 -20 -213 -7 0 4 -42 6 -92 5 -72 -2 -100 2 -125 16 -22 12 -54
17 -103 17 -40 0 -86 6 -107 15 -44 19 -103 19 -170 2 -32 -9 -56 -10 -61 -5
-6 6 -25 5 -48 -1 -22 -6 -55 -11 -75 -11 -20 0 -42 -6 -48 -14 -7 -8 -28 -17
-47 -21 -44 -8 -84 -25 -84 -37 0 -4 -7 -8 -16 -8 -9 0 -27 -9 -41 -20 -14
-11 -31 -20 -38 -20 -6 0 -20 -9 -30 -20 -10 -11 -24 -20 -32 -20 -7 0 -40 -9
-73 -20 -79 -27 -135 -19 -225 32 -38 22 -83 47 -100 56 -16 9 -35 22 -42 29
-7 6 -36 16 -64 22 -29 6 -84 25 -123 42 -129 54 -296 59 -430 13 -21 -8 -75
-14 -120 -14 -112 0 -246 -25 -266 -50 -7 -9 -84 -30 -109 -30 -12 0 -30 -6
-41 -12 -16 -10 -24 -10 -40 0 -11 6 -25 12 -31 12 -6 0 -33 18 -59 40 l-48
40 -113 -1 c-73 0 -115 3 -117 10 -4 13 -68 13 -97 1 -17 -7 -17 -9 -2 -9 9
-1 17 -8 17 -16 0 -9 12 -27 28 -40 l27 -24 -40 -1 c-55 0 -163 27 -204 51
-19 11 -40 18 -47 15 -7 -3 -16 -1 -19 4 -8 13 -145 13 -145 0 0 -5 -9 -10
-21 -10 -11 0 -17 5 -14 10 3 6 2 10 -3 10 -5 0 -12 18 -16 40 -5 33 -10 40
-30 40 -12 0 -31 9 -41 20 -26 29 -35 25 -35 -15 0 -20 -7 -47 -16 -60 -10
-15 -12 -25 -5 -25 6 0 11 -17 11 -40 0 -22 -4 -40 -10 -40 -16 0 -12 -84 5
-106 8 -10 15 -29 15 -41 0 -12 18 -49 40 -82 22 -33 40 -70 40 -81 0 -12 13
-32 29 -45 26 -22 28 -29 23 -75 -4 -41 -2 -50 12 -50 12 0 16 -10 16 -40 0
-25 5 -40 13 -40 6 0 24 -12 40 -25 20 -18 27 -33 27 -60 0 -19 5 -35 10 -35
6 0 10 -9 10 -20 0 -11 5 -20 11 -20 19 0 48 -44 49 -72 0 -20 9 -32 38 -49
20 -13 40 -28 44 -33 4 -6 8 8 8 32 0 24 5 42 11 42 7 0 5 10 -5 25 -9 13 -16
34 -16 46 0 12 -7 30 -16 40 -9 10 -20 40 -25 66 -5 26 -16 53 -24 59 -9 6
-15 27 -15 48 0 26 -4 36 -16 36 -11 0 -14 6 -9 23 4 12 11 26 16 32 5 5 9 17
9 27 0 10 5 18 10 18 6 0 10 5 10 11 0 6 -7 9 -15 6 -20 -8 -29 10 -35 73 -4
45 -9 57 -27 65 -13 5 -23 15 -23 22 0 15 26 18 34 4 9 -14 55 -19 72 -7 9 7
12 18 8 29 -7 18 -34 24 -34 7 0 -5 -6 -10 -13 -10 -9 0 -14 13 -15 34 -2 47
27 51 96 14 29 -15 61 -28 71 -28 10 0 33 -11 52 -25 81 -59 110 -75 135 -75
28 0 84 -29 84 -43 0 -13 23 -34 46 -41 58 -18 115 -106 95 -144 -6 -12 -11
-30 -11 -42 0 -13 -8 -24 -20 -27 -16 -4 -20 -14 -20 -44 0 -26 4 -39 14 -39
8 0 16 -15 19 -35 3 -20 19 -47 37 -65 24 -23 30 -37 26 -53 -3 -12 -6 -37 -6
-54 0 -23 -5 -33 -15 -33 -10 0 -15 -11 -15 -35 0 -19 -4 -35 -8 -35 -16 0 8
-121 28 -147 12 -16 20 -41 20 -64 l0 -39 -98 0 -98 0 -42 43 c-23 23 -42 49
-42 57 -1 22 -36 60 -54 60 -12 0 -16 10 -16 40 0 32 -4 40 -18 40 -11 0 -27
9 -37 20 -23 25 -35 25 -35 0 0 -13 7 -20 20 -20 18 0 20 -7 20 -80 0 -73 -2
-80 -19 -80 -16 0 -21 8 -24 43 -2 23 -4 5 -5 -40 l-2 -83 -30 0 c-17 0 -48
-9 -70 -20 -22 -11 -59 -20 -84 -20 -38 0 -45 3 -50 23 -3 12 -3 -7 -1 -43 4
-65 4 -65 -14 -42 -11 12 -29 22 -40 22 -12 0 -21 4 -21 8 0 5 -18 15 -40 22
-22 7 -40 17 -40 22 0 4 -7 8 -15 8 -8 0 -15 5 -15 10 0 6 7 10 15 10 8 0 15
7 15 15 0 9 12 27 28 40 l27 24 -27 1 c-26 0 -28 3 -28 40 0 33 -3 40 -20 40
-17 0 -20 7 -20 40 0 22 -4 40 -10 40 -5 0 -10 18 -10 40 0 22 -3 40 -7 40 -9
0 -53 62 -53 73 0 4 9 7 20 7 35 0 21 17 -27 32 -33 11 -52 24 -64 44 -8 16
-27 35 -42 42 -16 8 -38 36 -57 73 -17 33 -40 73 -51 89 -18 24 -21 38 -17 86
5 55 -8 114 -24 114 -4 0 -8 12 -8 28 0 54 -13 101 -32 122 -15 16 -19 32 -16
62 3 36 0 43 -29 65 -29 23 -33 31 -33 74 0 27 -4 49 -10 49 -5 0 -10 17 -10
38 0 20 -9 57 -20 81 -11 24 -20 50 -20 58 0 8 -9 27 -21 41 -17 22 -20 39
-18 111 2 76 0 86 -20 102 -20 16 -21 22 -11 86 12 85 12 83 0 83 -5 0 -10 -9
-10 -20 0 -13 -7 -20 -20 -20 -17 0 -20 7 -20 40 0 27 -4 40 -14 40 -10 0 -14
34 -18 155 -3 86 -8 158 -10 161 -3 2 -21 6 -42 7 -26 2 -47 14 -74 40 -21 20
-43 37 -50 37 -7 0 -12 15 -12 37 0 24 -8 45 -22 60 -25 27 -38 29 -38 6 0
-13 -5 -12 -26 8 -14 13 -20 25 -15 27 6 2 9 8 6 13 -3 5 -6 47 -6 94 0 66 -4
88 -17 102 -16 16 -17 12 -20 -55 l-3 -72 -39 0 -40 0 0 90 c0 82 2 90 19 90
16 0 20 11 26 80 5 58 11 80 21 80 19 0 18 34 -1 50 -8 7 -15 16 -15 21 0 5 7
9 15 9 11 0 15 11 15 40 l0 40 40 0 c34 0 40 -3 40 -21 0 -18 2 -19 15 -9 19
16 19 30 1 30 -17 0 -29 106 -20 173 7 47 7 47 45 47 21 0 39 -6 42 -12 3 -9
12 -6 28 10 l23 22 -27 0 c-37 0 -34 11 13 40 47 29 50 40 13 40 -80 0 76 35
205 46 43 3 87 13 100 21 14 9 44 14 75 12 29 -1 63 1 77 4 14 3 42 9 63 12
43 7 50 31 12 41 -25 6 -36 34 -13 34 6 0 32 13 57 29 26 17 67 32 96 36 28 4
66 14 85 23 23 11 58 16 104 15 66 -1 69 -1 79 26 13 36 114 91 152 83 33 -6
30 -34 -5 -42 -15 -4 -24 -12 -22 -22 1 -9 -10 -20 -28 -28 -34 -14 -78 -50
-61 -50 19 0 91 24 91 31 0 3 18 12 40 19 22 7 40 17 40 22 0 4 18 8 40 8 27
0 40 4 40 13 0 14 40 37 63 37 18 0 43 43 28 48 -6 2 -11 11 -11 19 0 11 -6
14 -22 9 -13 -3 -33 -6 -46 -6 -27 0 -41 -28 -21 -41 17 -11 -55 -10 -91 1
l-25 7 28 12 c16 6 44 27 62 45 19 20 58 43 93 56 40 15 64 30 73 47 14 26 57
53 83 53 8 0 23 8 33 18 38 39 155 113 169 108 7 -3 14 -1 14 4 0 6 11 10 25
10 14 0 25 5 25 10 0 6 -4 10 -10 10 -18 0 -11 21 18 49 15 15 34 40 42 56 16
30 68 67 82 59 13 -8 9 -41 -5 -47 -8 -3 -26 -29 -40 -59 -18 -36 -41 -64 -72
-86 -25 -17 -45 -38 -45 -46 0 -9 -9 -20 -20 -26 -11 -6 -20 -7 -20 -3 0 4 -7
-5 -15 -21 -8 -15 -15 -43 -15 -61 0 -25 -5 -34 -22 -40 -13 -4 -26 -7 -30 -6
-5 1 -8 -9 -8 -21 0 -13 -3 -33 -6 -44 -4 -16 0 -23 17 -27 19 -5 21 -11 16
-47 -3 -23 -14 -52 -25 -63 -10 -12 -26 -38 -34 -57 -39 -87 -47 -108 -63
-160 -18 -55 -46 -121 -55 -130 -23 -22 -29 -72 -27 -203 1 -109 6 -149 19
-174 9 -18 20 -47 23 -65 4 -18 13 -42 20 -53 7 -11 16 -40 20 -64 7 -42 14
-51 71 -99 18 -16 27 -33 27 -52 0 -26 4 -28 50 -34 27 -4 60 -14 73 -23 13
-8 41 -19 61 -24 21 -4 56 -16 78 -25 22 -10 50 -19 61 -20 12 -2 53 -18 90
-37 38 -19 92 -40 121 -46 28 -7 60 -19 70 -26 10 -8 24 -15 31 -15 19 0 82
-53 82 -67 0 -7 4 -13 9 -13 5 0 12 -8 15 -18 6 -18 89 -62 119 -62 15 0 17
-10 17 -80 0 -59 -3 -80 -13 -80 -7 0 -18 -15 -25 -33 -10 -27 -9 -42 4 -80 9
-26 20 -47 25 -47 5 0 9 -8 9 -19 0 -31 90 -43 117 -15 9 9 25 13 36 10 11 -3
30 0 41 7 12 7 32 12 46 13 62 2 80 5 80 12 0 4 -12 15 -27 24 -55 32 -73 54
-74 89 -1 64 -59 132 -59 70 0 -24 -4 -31 -20 -31 -17 0 -20 7 -20 40 0 29 -4
40 -15 40 -11 0 -15 11 -15 40 0 39 1 40 35 40 28 0 35 -4 35 -20 0 -11 4 -20
10 -20 5 0 15 9 22 20 13 20 48 28 48 10 0 -5 16 -12 36 -16 19 -4 38 -12 40
-19 3 -7 15 -16 27 -20 20 -7 20 -8 3 -12 -10 -3 -22 1 -27 9 -7 10 -12 11
-29 1 -11 -7 -27 -13 -35 -13 -8 0 -15 -4 -15 -10 0 -5 18 -10 39 -10 22 0 41
-5 43 -12 4 -10 10 -10 32 0 16 7 37 10 47 7 13 -4 19 -1 19 9 0 20 39 21 46
1 7 -18 65 -35 124 -35 25 -1 63 -7 85 -15 50 -18 83 -19 117 -1 14 8 42 19
61 25 35 12 77 42 77 55 0 4 23 34 51 66 48 54 56 59 105 65 53 6 71 17 168
98 48 40 66 57 91 88 11 13 37 33 58 43 37 19 64 41 139 111 20 19 41 35 47
35 6 0 11 6 11 14 0 17 46 47 110 72 25 10 47 21 50 25 9 13 123 79 137 79 13
0 155 103 210 153 17 16 39 44 48 63 9 19 19 34 23 34 5 0 14 17 21 37 8 20
24 48 36 61 48 51 13 222 -45 222 -9 0 -29 -18 -46 -40 -16 -22 -35 -40 -42
-40 -7 0 -19 -6 -26 -12 -7 -7 -28 -27 -47 -43 -19 -17 -44 -46 -56 -65 -12
-19 -44 -56 -71 -82 -37 -36 -53 -46 -70 -41 -28 7 -28 14 1 50 38 49 67 92
67 102 0 5 6 11 13 14 25 9 -3 19 -36 13 -49 -9 -147 -107 -147 -147 0 -16 -4
-29 -9 -29 -5 0 -11 -9 -14 -20 -3 -11 -14 -20 -25 -20 -11 0 -26 -10 -34 -22
-12 -18 -22 -21 -64 -17 -58 4 -215 1 -221 -5 -2 -2 -3 -23 -1 -47 l3 -42 31
26 c39 33 44 33 45 5 1 -14 6 -5 12 20 7 31 15 42 28 42 11 0 19 -4 19 -9 0
-5 3 -23 6 -40 6 -26 4 -31 -14 -31 -11 0 -22 -7 -26 -15 -3 -8 -17 -15 -32
-15 -59 0 -105 -23 -150 -76 -38 -44 -50 -52 -80 -52 -34 0 -34 0 -28 37 4 20
11 38 15 39 5 2 9 10 9 18 0 8 10 14 25 14 30 0 33 15 6 30 -25 13 -31 13 -31
-2 -1 -29 -67 -55 -154 -63 -47 -4 -86 -11 -86 -17 0 -6 -35 -9 -89 -7 -71 2
-94 -1 -115 -15 -19 -12 -31 -14 -39 -8 -7 6 -86 13 -177 17 -102 5 -175 12
-190 20 -66 35 -119 55 -142 55 -41 0 -88 20 -88 38 0 30 -36 76 -78 102 -23
14 -42 30 -42 36 0 7 -18 28 -40 48 -22 20 -40 40 -40 46 0 5 -6 10 -13 10 -8
0 -19 18 -26 39 -6 21 -18 42 -26 45 -8 3 -15 12 -15 21 0 9 -6 26 -14 38 -21
33 -34 325 -14 332 11 5 13 18 7 63 -4 31 -12 70 -18 85 -6 16 -11 39 -11 52
0 13 -7 30 -15 39 -18 18 -19 48 -3 64 9 9 9 12 0 12 -8 0 -12 28 -12 94 0 87
2 97 26 125 25 30 25 31 5 31 -18 0 -21 6 -21 41 0 29 4 38 13 34 6 -4 4 0 -5
7 -15 13 -14 16 18 33 52 28 87 96 85 167 -1 37 -9 70 -21 91 l-19 32 39 40
c21 22 39 47 40 55 0 8 12 28 26 43 23 25 26 35 21 73 -4 35 0 50 16 71 15 18
17 28 9 31 -14 4 -16 32 -2 32 6 0 10 12 10 28 0 15 7 45 14 67 8 22 19 78 25
125 5 47 20 112 31 145 12 33 23 71 26 85 3 19 22 299 24 357 0 7 -10 23 -23
36 -18 21 -24 22 -35 11 -34 -36 -36 -14 -36 366 0 263 6 339 25 350 7 5 8 23
4 52 -12 79 38 139 132 158 32 7 76 21 98 31 22 10 51 19 65 21 47 6 275 2
370 -6z m-3574 -21 c4 -8 -1 -37 -10 -64 -18 -56 -21 -122 -6 -149 5 -9 17
-35 26 -57 10 -22 41 -69 70 -105 149 -183 140 -178 419 -286 39 -14 76 -31
83 -37 23 -18 -44 -35 -110 -27 -31 3 -67 2 -80 -3 -23 -8 -54 -9 -233 -4
-174 5 -297 37 -363 93 -26 22 -54 43 -63 46 -9 4 -26 27 -39 52 -12 26 -35
60 -51 75 -26 26 -29 37 -29 89 0 41 5 63 15 72 9 7 18 10 22 7 7 -8 43 11 43
22 0 4 -11 13 -24 19 -19 9 -31 8 -54 -4 -32 -15 -57 -11 -66 11 -6 17 67 102
97 111 12 4 38 19 57 35 19 15 55 34 80 42 25 9 64 23 85 33 110 47 123 50
131 29z m1353 -135 c20 -22 42 -40 48 -40 6 0 28 -15 47 -34 45 -42 111 -86
129 -86 8 0 27 -10 42 -22 l27 -21 -23 -18 c-13 -10 -29 -19 -36 -19 -6 0 -22
-15 -34 -32 -23 -35 -89 -97 -102 -98 -11 0 -109 -73 -125 -93 -8 -9 -11 -20
-8 -25 6 -10 -73 -32 -119 -33 -16 0 -65 4 -107 8 -43 5 -78 5 -78 1 0 -4 -6
-5 -14 -2 -8 3 -28 -4 -44 -16 -15 -12 -51 -25 -78 -29 -32 -5 -48 -12 -46
-20 8 -37 -45 -52 -107 -30 -58 21 -31 48 49 49 26 0 44 9 72 35 20 19 40 35
45 35 14 0 143 121 143 135 0 7 7 18 15 25 8 7 20 31 26 53 6 23 17 46 24 52
8 5 23 30 35 55 12 25 33 66 46 92 13 27 24 55 24 65 0 30 31 53 73 53 33 0
45 -6 76 -40z m737 -427 c4 -14 1 -41 -5 -59 -7 -19 -10 -38 -7 -42 3 -5 7
-21 10 -36 6 -34 27 -61 35 -47 4 6 17 -21 30 -59 13 -39 28 -70 32 -70 16 0
39 -33 39 -56 0 -13 5 -24 11 -24 15 0 4 -71 -12 -81 -9 -5 -6 -15 10 -34 15
-20 21 -42 21 -79 0 -92 9 -121 40 -133 28 -10 28 -10 23 21 -3 17 -5 58 -4
91 1 53 4 63 30 85 28 24 28 27 21 85 -8 64 2 109 23 103 22 -8 32 -75 18
-121 -7 -23 -16 -77 -21 -120 -4 -43 -17 -97 -29 -122 -11 -24 -23 -70 -26
-102 -3 -32 -12 -83 -21 -113 -30 -111 -42 -156 -49 -194 -3 -21 -25 -82 -47
-135 -96 -229 -141 -321 -181 -365 -11 -12 -44 -50 -75 -86 -88 -100 -185
-193 -231 -220 -23 -14 -86 -59 -139 -100 -91 -71 -213 -140 -245 -140 -8 0
-110 -31 -228 -69 -118 -38 -241 -74 -274 -81 -33 -8 -64 -17 -70 -21 -31 -22
-185 -34 -430 -33 -231 1 -267 4 -320 22 -60 20 -108 27 -265 41 -49 4 -104
16 -131 28 -26 12 -66 24 -90 28 -65 10 -136 35 -172 59 -18 12 -52 33 -77 48
-72 42 -231 205 -246 250 -6 22 -64 101 -89 123 -7 6 -20 33 -30 60 -11 28
-25 60 -31 73 -12 24 -8 62 6 62 5 0 10 -10 12 -22 2 -13 9 -22 16 -20 6 1 12
-4 12 -12 0 -8 11 -17 25 -20 14 -4 30 -17 34 -29 10 -25 72 -97 84 -97 5 0
15 -7 23 -15 22 -21 44 -19 44 5 0 11 -4 20 -10 20 -5 0 -10 7 -10 15 0 8 -13
28 -29 44 -16 16 -32 45 -36 63 -4 18 -15 40 -24 48 -30 28 -44 62 -30 70 9 6
7 15 -10 35 -26 34 -27 45 -1 45 11 0 20 -5 20 -11 0 -5 5 -7 11 -3 8 5 7 9
-1 14 -10 6 -12 34 -7 110 7 143 0 210 -24 210 -15 0 -19 8 -19 40 0 36 2 40
26 40 l25 0 -5 118 c-3 64 -5 118 -5 120 -1 1 -8 2 -17 2 -20 0 -53 39 -54 64
0 10 16 34 35 53 29 29 35 42 35 79 0 32 -4 44 -15 44 -11 0 -15 11 -15 40 0
41 3 46 71 104 27 23 159 23 159 0 0 -18 -18 -53 -36 -71 -15 -15 -78 -18 -69
-3 3 6 1 10 -4 10 -6 0 -11 -18 -11 -40 l0 -40 40 0 c29 0 40 4 40 15 0 11 11
15 40 15 57 0 120 27 120 52 0 18 5 19 48 14 26 -3 61 -6 77 -6 25 0 30 -4 31
-25 2 -32 31 -65 55 -65 11 0 21 -10 24 -23 6 -22 10 -23 49 -17 23 3 47 9 54
13 13 9 62 -14 81 -37 8 -9 24 -16 37 -16 13 0 24 -4 24 -10 0 -5 17 -12 38
-16 20 -4 51 -13 67 -19 17 -7 36 -10 43 -8 6 3 12 0 12 -6 0 -5 16 -13 35
-17 19 -3 38 -10 41 -15 3 -5 17 -9 32 -9 15 0 59 -7 97 -15 150 -33 184 -36
306 -25 119 10 144 17 219 65 19 13 51 26 71 29 21 4 48 15 62 26 14 11 30 20
36 20 6 0 11 4 11 10 0 5 11 12 25 16 14 3 25 10 25 14 0 4 10 10 23 14 12 3
32 14 43 24 11 11 35 23 52 27 38 8 89 32 97 46 4 5 15 9 27 9 23 0 120 46
129 62 8 12 75 38 101 38 25 0 88 40 88 55 0 7 15 15 33 18 17 3 50 10 72 15
22 6 53 13 68 17 17 3 31 15 37 30 5 14 14 25 20 25 5 0 10 9 10 20 0 17 -7
20 -50 20 -49 0 -98 15 -112 35 -5 7 -8 7 -8 0 0 -6 -13 -16 -29 -23 -35 -15
-139 -1 -153 21 -10 15 -10 39 0 52 28 39 192 83 192 51 0 -8 8 -16 18 -18 26
-6 110 20 167 52 28 15 63 30 78 34 35 8 108 -13 125 -36 19 -26 34 -22 61 17
19 29 26 33 42 24 10 -5 22 -21 25 -36z m11114 -673 c0 -5 7 -10 15 -10 8 0
32 -7 53 -15 28 -12 42 -25 52 -50 7 -18 12 -37 11 -41 -2 -4 1 -10 6 -13 14
-11 33 -50 33 -71 0 -11 11 -27 24 -36 28 -17 40 -58 30 -98 -8 -33 -39 -35
-71 -4 -19 18 -23 32 -23 80 l0 58 -40 0 c-29 0 -40 4 -40 15 0 8 -11 17 -25
21 -46 12 -98 138 -68 167 10 11 43 8 43 -3z m-313 -974 c21 -8 54 -17 73 -20
19 -4 58 -21 85 -40 28 -18 74 -48 102 -66 29 -18 55 -41 58 -51 9 -27 -5 -90
-21 -96 -8 -3 -14 -13 -14 -22 0 -24 -48 -91 -65 -91 -8 0 -15 5 -15 10 0 6
-3 9 -7 8 -5 -1 -25 2 -45 6 -35 8 -102 68 -135 121 -21 35 -51 99 -58 125 -3
14 -13 42 -22 62 -27 64 -7 81 64 54z m-5063 -351 c6 -24 -8 -62 -29 -77 -6
-4 -10 -56 -10 -120 0 -110 -1 -114 -28 -142 -26 -28 -28 -28 -47 -11 -27 24
-25 49 5 73 14 11 25 25 25 31 0 6 6 11 13 11 8 0 14 15 15 40 2 23 -2 40 -8
40 -5 0 -10 18 -10 40 0 22 4 40 10 40 5 0 12 17 16 38 11 61 37 82 48 37z
m-1014 -215 c11 -7 2 -10 -33 -10 -28 0 -46 -4 -42 -9 13 -23 -43 -30 -241
-31 -157 -1 -219 2 -247 13 -37 13 -35 14 110 26 81 7 209 13 283 14 74 2 140
4 145 5 6 1 17 -3 25 -8z m5865 -2870 c79 -60 192 -175 207 -210 11 -28 52
-203 62 -268 10 -64 -11 -97 -81 -125 -41 -16 -73 -14 -73 4 0 5 -8 9 -19 9
-19 0 -91 79 -91 99 0 6 -8 19 -17 29 -26 26 -44 72 -38 93 4 11 2 19 -4 19
-6 0 -11 6 -11 13 0 8 -9 22 -19 31 -11 10 -28 40 -37 67 -10 27 -22 49 -27
49 -14 0 3 192 19 218 22 34 56 27 129 -28z m-8273 -450 c12 -11 28 -20 35
-20 7 0 13 -9 13 -19 0 -11 5 -21 11 -23 7 -2 6 -18 -2 -50 -11 -40 -18 -50
-48 -62 -20 -7 -55 -17 -78 -21 -24 -4 -43 -11 -43 -16 0 -5 -6 -9 -14 -9 -8
0 -18 -9 -21 -20 -3 -11 -10 -20 -14 -20 -4 0 -18 -9 -31 -20 -14 -12 -37 -20
-60 -20 -32 0 -41 -6 -69 -45 -30 -42 -38 -78 -17 -75 9 2 26 -19 26 -32 0
-20 -97 -51 -154 -49 -43 1 -67 -4 -93 -19 -26 -15 -52 -20 -108 -20 -70 0
-165 -17 -165 -30 0 -3 -53 -4 -117 -2 -90 3 -120 7 -126 18 -4 8 -17 14 -27
14 -11 0 -20 7 -20 14 0 16 -59 66 -78 66 -6 0 -12 5 -14 11 -2 6 -25 13 -51
16 -48 6 -56 16 -34 45 8 9 11 32 9 53 -3 29 -12 41 -43 61 -42 26 -44 30 -30
68 8 19 19 26 56 31 25 4 49 14 53 22 11 18 198 21 230 4 11 -6 23 -11 26 -11
11 0 6 19 -6 23 -7 2 -2 2 12 0 51 -8 78 -26 82 -55 4 -25 2 -28 -24 -28 -21
0 -35 -10 -58 -42 -16 -22 -30 -49 -30 -60 0 -10 -4 -18 -10 -18 -5 0 -10 -7
-10 -15 0 -9 -7 -26 -16 -40 -19 -30 -3 -61 36 -67 22 -3 26 0 28 21 1 14 7
30 12 35 16 16 12 26 -10 26 -21 0 -27 15 -10 25 6 3 10 2 10 -4 0 -5 18 -2
39 7 43 18 61 46 61 92 0 16 4 31 9 35 13 7 87 -65 96 -93 7 -25 2 -24 120
-22 70 1 96 5 116 20 19 14 37 17 75 13 27 -2 45 -1 39 4 -5 4 -19 25 -29 46
-18 35 -46 51 -46 25 0 -6 -3 -9 -6 -6 -3 4 -2 27 1 52 5 34 12 46 24 46 9 0
22 5 28 11 13 13 66 27 148 40 68 11 125 29 125 41 0 4 14 8 32 8 45 0 97 21
104 42 7 24 30 23 56 -2z m1888 -550 c0 -5 18 -20 40 -32 24 -14 38 -28 35
-36 -3 -8 -5 -29 -5 -48 0 -23 -5 -34 -14 -34 -11 0 -15 -20 -18 -86 -3 -80
-1 -88 20 -104 30 -24 30 -76 -1 -100 -19 -15 -22 -25 -19 -64 3 -37 8 -46 23
-46 15 0 19 -7 19 -40 l0 -40 70 0 70 0 0 -40 c0 -38 -2 -40 -30 -40 -20 0
-30 -5 -30 -15 0 -8 -13 -28 -30 -43 -23 -22 -30 -38 -30 -66 0 -29 -4 -36
-20 -36 -17 0 -20 -7 -20 -40 0 -38 -2 -40 -30 -40 -28 0 -30 -2 -30 -40 0
-33 -3 -40 -20 -40 -17 0 -20 -7 -20 -40 0 -33 3 -40 20 -40 13 0 20 -7 20
-20 0 -17 7 -20 40 -20 33 0 40 -3 40 -20 0 -15 -7 -20 -27 -20 l-28 -1 28
-24 c29 -26 36 -55 12 -55 -11 0 -15 -12 -15 -44 0 -66 -11 -108 -30 -113 -14
-4 -19 -27 -30 -121 -10 -86 -10 -117 -1 -120 6 -2 11 -21 11 -43 0 -37 2 -39
30 -39 28 0 30 -3 30 -36 0 -19 6 -42 14 -50 8 -8 31 -14 50 -14 33 0 36 -2
36 -30 0 -23 -4 -30 -20 -30 -18 0 -20 -7 -20 -80 0 -73 -2 -80 -20 -80 -11 0
-20 -4 -20 -10 0 -15 67 -12 73 3 3 6 6 1 7 -13 1 -14 4 -19 7 -12 4 10 11 8
29 -9 30 -28 30 -46 2 -76 -17 -18 -32 -23 -69 -23 -52 0 -59 -8 -59 -66 0
-24 -5 -34 -15 -34 -11 0 -15 -11 -15 -41 l0 -41 56 7 c45 5 63 2 95 -14 22
-12 42 -21 44 -21 3 0 5 14 5 30 l0 30 80 0 c64 0 80 -3 80 -15 0 -10 -10 -15
-26 -15 -32 0 -53 -25 -54 -62 0 -18 6 -29 20 -33 19 -6 26 -25 14 -38 -11
-11 -34 5 -34 24 0 23 1 23 -44 4 -33 -14 -36 -19 -37 -58 -1 -23 -1 -58 0
-77 1 -32 0 -33 -12 -17 -8 9 -22 17 -31 17 -13 0 -15 -4 -6 -19 14 -28 14
-28 -27 -47 -80 -34 -83 -37 -83 -63 0 -31 -25 -71 -45 -71 -8 0 -20 -8 -27
-18 -17 -25 -56 -45 -74 -38 -8 3 -14 1 -14 -4 0 -6 7 -10 15 -10 8 0 15 -3
15 -6 0 -12 -55 -64 -68 -64 -7 0 -15 -7 -18 -15 -9 -24 -23 -17 -16 8 5 20 3
19 -19 -7 -50 -59 -133 -132 -148 -129 -5 1 -7 -6 -4 -16 4 -14 -10 -29 -55
-60 -33 -22 -63 -49 -67 -60 -3 -11 -13 -22 -21 -25 -19 -7 -57 -37 -116 -88
-24 -21 -48 -38 -55 -38 -7 0 -17 -9 -23 -19 -5 -11 -35 -34 -65 -51 -30 -17
-61 -37 -68 -44 -6 -6 -28 -23 -47 -36 -19 -14 -50 -38 -68 -55 -18 -16 -44
-34 -56 -40 -13 -5 -46 -30 -74 -53 -28 -24 -82 -59 -120 -77 -38 -18 -88 -45
-113 -60 -24 -16 -70 -39 -103 -51 -32 -13 -73 -34 -90 -48 -18 -13 -77 -45
-132 -71 -54 -26 -100 -52 -102 -56 -2 -5 -18 -9 -37 -9 -18 0 -38 -7 -45 -15
-7 -8 -17 -15 -22 -15 -5 0 -16 -7 -24 -15 -9 -8 -25 -15 -38 -15 -12 0 -39
-9 -60 -19 -21 -11 -52 -23 -69 -27 -18 -3 -66 -24 -107 -45 -41 -22 -93 -44
-115 -50 -22 -6 -55 -24 -73 -40 -19 -17 -44 -29 -61 -29 -15 0 -50 -12 -77
-26 -27 -14 -77 -32 -111 -39 -34 -8 -75 -23 -90 -34 -16 -11 -66 -27 -115
-36 -47 -8 -112 -27 -143 -41 -37 -17 -88 -30 -144 -36 -47 -5 -126 -19 -176
-31 -67 -16 -116 -21 -190 -19 -55 1 -129 3 -165 4 -36 1 -139 -5 -230 -12
-203 -15 -300 -5 -318 36 -10 21 -9 24 8 24 11 0 20 5 20 10 0 6 8 10 18 10
26 0 34 11 21 26 -9 10 -7 15 4 20 9 3 13 12 10 19 -2 8 5 28 17 45 21 30 22
30 116 30 53 0 104 5 115 10 13 7 19 7 19 0 0 -5 7 -10 15 -10 8 0 15 4 15 8
0 5 11 15 25 22 14 7 25 22 25 33 0 11 8 29 17 39 15 17 15 20 -5 38 -12 11
-25 20 -29 20 -5 0 -21 21 -37 48 -27 43 -29 54 -28 134 2 80 0 91 -28 140
-17 29 -36 64 -41 78 -6 14 -15 32 -20 40 -5 8 -18 34 -30 57 -11 23 -27 47
-35 54 -8 6 -14 20 -14 30 0 11 -9 28 -20 39 -20 20 -20 20 2 20 21 0 21 1 3
13 -12 9 -21 35 -27 78 -4 35 -13 66 -18 67 -6 2 -10 14 -10 26 0 12 -10 32
-21 45 -14 15 -22 38 -24 69 -4 59 -15 102 -26 102 -5 0 -9 13 -9 30 0 21 -4
28 -14 24 -22 -9 -37 51 -30 123 6 60 6 63 -15 63 -20 0 -21 5 -21 89 0 59 -5
98 -15 117 -19 38 -19 74 0 74 8 0 15 -7 15 -15 0 -8 5 -15 10 -15 6 0 10 5
10 10 0 6 11 10 25 10 15 0 39 7 55 15 27 14 30 20 30 65 0 44 3 50 21 50 11
0 32 14 46 30 24 29 27 30 114 30 53 0 89 4 89 10 0 6 18 10 40 10 22 0 40 -4
40 -10 0 -5 18 -10 40 -10 38 0 40 -2 40 -30 0 -30 1 -30 55 -30 30 0 55 -4
55 -10 0 -16 57 -40 95 -40 24 0 35 -4 35 -15 0 -11 11 -15 40 -15 33 0 40 3
40 20 0 17 7 20 40 20 38 0 40 2 40 30 0 18 9 39 23 52 12 13 23 33 24 46 2
26 20 52 36 52 18 0 57 -42 57 -62 0 -10 5 -18 10 -18 6 0 10 -11 10 -25 0
-22 4 -25 40 -25 29 0 40 4 40 15 0 11 12 15 49 15 50 0 64 9 86 54 8 16 21
22 58 24 26 2 47 7 47 13 0 5 20 9 44 9 25 0 48 5 51 10 3 6 19 10 34 10 21 0
28 5 27 18 -1 15 10 17 82 20 l82 3 0 29 c0 28 2 30 40 30 38 0 40 -2 40 -30
0 -35 10 -38 35 -10 14 15 31 20 72 20 29 0 53 -4 53 -10 0 -6 47 -10 120 -10
73 0 120 4 120 10 0 6 -18 10 -40 10 -33 0 -40 3 -40 20 0 24 6 24 138 8 104
-12 114 -15 93 -27 -9 -6 -10 -11 -2 -15 6 -4 11 -2 11 3 0 6 9 11 20 11 18 0
20 -7 20 -80 l0 -80 33 0 c28 0 35 -5 45 -33 7 -18 12 -54 12 -80 0 -43 -2
-47 -25 -47 -25 0 -25 -1 -25 -92 0 -72 3 -89 12 -80 7 7 25 12 40 12 25 0 28
3 28 35 0 46 39 124 63 125 18 0 22 23 17 108 -1 28 5 54 19 78 15 25 21 52
21 92 0 62 25 117 41 91 7 -11 11 -11 21 -1 15 15 15 16 17 72 1 32 9 48 39
79 21 21 38 47 39 57 1 11 4 29 8 42 6 19 4 22 -19 22 -14 0 -26 3 -26 8 0 11
61 43 71 36 5 -3 9 8 9 25 0 20 6 32 19 36 10 3 31 17 45 30 24 22 26 31 26
105 l0 80 35 0 c19 0 35 5 35 10 0 6 -18 10 -40 10 -22 0 -40 -4 -40 -10 0
-17 -26 -11 -45 10 -10 11 -24 20 -32 20 -8 0 -31 9 -53 20 -22 11 -55 20 -75
20 -24 0 -35 4 -35 15 0 11 11 15 39 15 47 0 87 29 96 70 4 16 11 32 16 35 5
4 9 17 9 31 0 17 6 24 19 24 21 0 35 28 26 52 -3 8 3 23 15 33 11 10 20 24 20
32 0 7 10 13 23 13 12 0 42 18 67 41 34 32 53 42 77 41 36 -1 43 11 38 67 -3
27 1 45 11 55 8 9 14 24 12 33 -2 10 2 17 7 16 6 -1 27 -4 48 -8 35 -7 51 5
27 20 -5 3 -10 17 -10 31 0 18 5 24 23 24 37 0 114 77 122 123 4 22 13 37 21
37 8 0 14 7 14 15 0 8 6 15 14 15 7 0 21 11 30 25 11 17 26 25 46 25 28 0 30
2 30 40 0 33 -3 40 -20 40 -11 0 -20 7 -20 16 0 11 6 13 19 9 15 -5 21 0 26
23 6 29 23 41 80 58 20 6 31 17 33 32 2 12 10 22 18 22 8 0 14 8 14 18 0 9 4
23 9 31 8 12 12 12 25 2 14 -12 16 -10 16 8 0 15 6 21 22 21 20 0 20 1 4 19
-17 18 -16 20 18 32 20 7 36 17 36 21 0 4 11 8 24 8 14 0 28 5 31 11 4 5 12 8
18 6 15 -5 87 50 87 66 0 7 -18 23 -40 37 -22 14 -40 28 -40 31 0 3 11 18 25
33 27 30 46 28 38 -4 -5 -17 0 -20 26 -20 30 0 31 1 31 45 0 33 5 47 16 52 9
3 19 1 23 -6 5 -7 15 4 27 29 11 24 26 40 37 40 9 0 17 -4 17 -10z m-4590
-3067 c7 -21 12 -57 11 -80 -2 -26 2 -43 8 -43 6 0 11 14 11 30 0 39 10 38 49
-6 28 -30 33 -44 37 -97 2 -34 5 -91 8 -127 3 -44 2 -55 -3 -35 -5 17 -9 22
-10 13 -1 -14 -10 -18 -41 -18 l-40 0 0 40 c0 33 3 40 20 40 11 0 20 4 20 10
0 5 -9 15 -20 22 -11 7 -20 23 -20 35 0 12 -18 39 -40 61 -24 24 -40 48 -40
63 0 19 -2 21 -10 9 -17 -27 -32 36 -19 81 10 33 17 39 39 39 21 0 29 -7 40
-37z m220 -963 c0 -29 4 -40 15 -40 11 0 15 -11 15 -40 0 -22 -4 -40 -10 -40
-5 0 -10 -18 -10 -40 0 -39 1 -40 34 -40 27 0 36 -5 42 -22 9 -31 22 -38 56
-31 21 4 28 2 28 -11 0 -9 8 -16 20 -16 18 0 20 -7 20 -62 0 -54 -4 -67 -28
-95 -26 -31 -52 -43 -52 -24 0 5 -34 12 -75 16 l-75 7 0 33 c0 53 -9 65 -46
65 -19 0 -34 5 -34 10 0 6 16 10 35 10 29 0 35 4 35 21 0 18 -5 20 -38 18 -21
-2 -42 -1 -47 2 -6 3 -16 4 -22 3 -7 -1 -28 -2 -45 -3 -47 -2 -15 -21 35 -21
34 0 37 -2 37 -30 0 -25 4 -30 24 -30 39 0 56 -11 56 -36 0 -20 -6 -25 -40
-30 -42 -7 -57 -34 -19 -34 31 0 17 -24 -17 -28 -23 -3 -27 -1 -17 9 9 9 10
16 2 26 -13 15 -45 17 -53 4 -9 -14 -56 0 -56 16 0 8 -9 17 -20 20 -20 5 -29
43 -10 43 6 0 10 7 10 15 0 8 -4 15 -10 15 -5 0 -10 7 -10 16 0 18 -17 37 -42
47 -19 7 -25 37 -8 37 6 0 10 9 10 20 0 17 7 20 40 20 27 0 47 7 60 20 21 21
27 60 10 60 -5 0 -10 18 -10 40 l0 40 50 0 50 0 0 -80 c0 -73 2 -80 20 -80 17
0 20 7 20 40 0 22 -4 40 -10 40 -5 0 -10 18 -10 40 0 38 2 40 30 40 28 0 30 2
30 40 0 29 4 40 15 40 11 0 15 -11 15 -40z"/>
<path d="M6980 24223 c-8 -4 -21 -14 -28 -25 -7 -10 -18 -18 -23 -18 -6 0 -38
-19 -72 -43 -34 -24 -84 -52 -112 -62 -27 -10 -63 -32 -80 -49 -16 -17 -36
-31 -44 -32 -22 -4 -61 -46 -61 -67 0 -28 43 -15 93 29 23 19 49 34 59 34 17
0 135 64 165 90 7 5 16 10 20 10 4 0 25 15 46 34 21 19 51 40 67 46 61 25 32
77 -30 53z"/>
<path d="M7100 23953 c-14 -9 -32 -24 -40 -32 -19 -20 -43 -35 -100 -64 -69
-34 -100 -80 -64 -94 31 -12 90 18 159 82 39 36 73 65 77 65 13 0 47 43 42 52
-9 14 -48 9 -74 -9z"/>
<path d="M6428 23798 c-72 -70 -83 -80 -119 -98 -13 -7 -42 -28 -63 -47 -22
-18 -48 -33 -58 -33 -10 0 -18 -4 -18 -10 0 -5 -6 -10 -14 -10 -8 0 -19 -13
-25 -30 -5 -17 -17 -30 -26 -30 -9 0 -28 -13 -42 -30 -13 -16 -34 -30 -44 -30
-30 0 -68 -22 -160 -96 -70 -55 -161 -122 -213 -156 -6 -4 -36 -19 -66 -33
-30 -15 -80 -41 -111 -59 -30 -18 -70 -38 -88 -44 -42 -15 -247 -151 -341
-227 -109 -89 -210 -194 -210 -221 0 -12 -3 -29 -6 -37 -4 -12 0 -14 16 -10
12 3 24 13 28 22 3 9 19 27 36 41 16 14 41 37 55 53 14 15 29 27 34 27 5 0 23
15 41 33 56 56 95 85 134 98 44 14 119 55 148 81 12 11 43 25 70 32 27 7 73
30 103 50 29 20 57 36 61 36 10 0 108 66 135 90 26 24 138 94 190 118 22 11
57 33 79 51 25 20 50 31 71 31 39 0 117 37 173 81 23 19 60 48 83 64 22 17 52
40 66 53 14 13 48 39 75 58 59 42 82 65 114 111 28 41 30 65 9 83 -8 7 -14 20
-13 29 2 10 -5 17 -18 19 -15 2 -41 -16 -86 -60z"/>
</g>
</svg>
